<svg xmlns="http://www.w3.org/2000/svg" viewBox="0 0 282.21 43.01"><defs><style>.cls-1{fill:#3ddc84;}</style></defs><g id="Layer_2" data-name="Layer 2"><g id="Layer_1-2" data-name="Layer 1"><path d="M13.52,13.81a11.24,11.24,0,0,1,9,4.34V14.37h6.16V42.42H24.24a1.75,1.75,0,0,1-1.76-1.75h0v-2a11.07,11.07,0,0,1-9,4.37C5.83,43,0,36.42,0,28.41s5.8-14.6,13.52-14.6m1.08,5.61c-5,0-8.38,3.94-8.38,9s3.36,9,8.38,9,8.37-3.94,8.37-9-3.32-9-8.37-9m21.08-5.05h6.19v3.81a9.67,9.67,0,0,1,8.53-4.37c6.52,0,10.72,4.6,10.72,11.73V42.42H56.69a1.75,1.75,0,0,1-1.76-1.75h0V26.55c0-4.43-2.25-7.13-5.83-7.13-4.11,0-7.23,3.19-7.23,9.19V42.42H37.43a1.75,1.75,0,0,1-1.75-1.75h0Zm43.85-.56a11.26,11.26,0,0,1,9,4.34V.36h6.16V42.45H90.25a1.75,1.75,0,0,1-1.76-1.74v-2a11.21,11.21,0,0,1-9,4.34C71.81,43,66,36.42,66,28.41s5.87-14.6,13.56-14.6m1.11,5.61c-5,0-8.38,3.94-8.38,9s3.36,9,8.38,9,8.37-3.94,8.37-9-3.39-9-8.37-9m21-5.05h6.16v5a7.92,7.92,0,0,1,7.4-5.28,13,13,0,0,1,2.41.23v6.36a9.94,9.94,0,0,0-3.1-.53c-3.55,0-6.74,3-6.74,8.61V42.42h-4.43a1.75,1.75,0,0,1-1.76-1.75h0V14.37ZM134.33,43A14.6,14.6,0,1,1,149,28.41,14.48,14.48,0,0,1,134.33,43m0-5.74c4.95,0,8.4-3.88,8.4-8.86s-3.48-8.86-8.4-8.86-8.47,3.88-8.47,8.86,3.48,8.86,8.47,8.86m22.77-29a4.12,4.12,0,0,1,0-8.24h0a4.12,4.12,0,1,1,0,8.24M154,14.37h6.16V42.42h-4.43A1.75,1.75,0,0,1,154,40.67h0S154,14.37,154,14.37Zm24.76-.56a11.24,11.24,0,0,1,9,4.34V.36H194V42.45h-4.43a1.75,1.75,0,0,1-1.76-1.74v-2a11.2,11.2,0,0,1-9,4.34c-7.69,0-13.52-6.59-13.52-14.6s5.86-14.6,13.55-14.6m1.14,5.61c-5,0-8.37,3.94-8.37,9s3.35,9,8.37,9,8.37-3.94,8.37-9-3.39-9-8.37-9"/><path class="cls-1" d="M262.07,31.93a3.13,3.13,0,1,1,3.13-3.13h0a3.13,3.13,0,0,1-3.13,3.13m-34.43,0a3.13,3.13,0,1,1,3.13-3.13h0a3.14,3.14,0,0,1-3.13,3.13m35.54-18.76,6.26-10.79A1.29,1.29,0,1,0,267.2,1.1h0L260.87,12a38.08,38.08,0,0,0-16-3.46,38.87,38.87,0,0,0-16,3.42L222.49,1.08a1.29,1.29,0,1,0-2.25,1.26h0l6.22,10.78a36.87,36.87,0,0,0-19.09,29.46h74.84a36.69,36.69,0,0,0-19-29.42"/></g></g></svg>