<svg xmlns="http://www.w3.org/2000/svg" viewBox="0 0 282.82 76.56"><defs><style>.cls-1{fill:#b52e31;}.cls-2{fill:#e23237;}.cls-3{fill:#fff;}</style></defs><g id="Layer_2" data-name="Layer 2"><g id="Layer_1-2" data-name="Layer 1"><path class="cls-1" d="M83.19,56.76V22h4.47l21.27,28V22h4.25V56.76H108.7L87.42,28.48V56.76H83.19Zm64.63-1.38a25.94,25.94,0,0,1-9.06,1.6q-18.88,0-18.89-18.12c0-11.43,6.07-17.18,18.25-17.18a32.25,32.25,0,0,1,9.72,1.44V27a25.24,25.24,0,0,0-9.22-1.71c-9.5,0-14.26,4.53-14.26,13.48,0,9.66,4.7,14.47,14,14.47a24.17,24.17,0,0,0,5-.61V41h4.47V55.39Zm7.18-12V22h4.47V43.34q0,10,10,10c6.63,0,10-3.34,10-10V22H184V43.34c0,9.11-4.81,13.7-14.48,13.7s-14.47-4.59-14.47-13.7ZM196.43,22V53.16h18.25v3.65H192V22h4.45Zm24.69,34.8h-4.69l17.28-39.36L251,56.81h-5l-4.48-10.94H230.06l1.22-3.65h8.78l-6.52-15.74L221.11,56.81Zm34.69,0V22h14.86c6.63,0,9.94,2.76,9.94,8.34,0,4.53-3.26,7.9-9.72,10l11.93,16.4h-5.91L265.86,41.12V38.25c6.63-1,10-3.59,10-7.68,0-3.2-1.8-4.81-5.52-4.81h-9.95v31h-4.58Z"/><path class="cls-2" d="M0,12.7,35.63,0,72.2,12.49,66.28,59.6l-30.65,17L5.47,59.85Z"/><path class="cls-1" d="M72.2,12.48,35.63,0V76.56l30.65-17L72.2,12.48Z"/><path class="cls-3" d="M35.69,9,13.48,58.3l8.28-.16L26.24,47H46.07L51,58.25l7.9.16L35.71,8.92Zm.05,15.85,7.51,15.69H29.16l6.58-15.68Z"/></g></g></svg>