<svg xmlns="http://www.w3.org/2000/svg" viewBox="0 0 282.82 81.91"><defs><style>.cls-1{fill:#222;}</style></defs><g id="Layer_2" data-name="Layer 2"><g id="Layer_1-2" data-name="Layer 1"><path class="cls-1" d="M1.84,63.87V32.4h39.3V30.56H1.84V1.84H43.62V0H0V65.71H44V63.87ZM79.43,18.41,63.14,39.85,47.21,18.41H44.82L62,41.23,43.16,65.71h2.21l17.77-23.1L81,65.71h2.3l-19-24.48,17.3-22.82Zm9.38,63.5V52.46H89a18.82,18.82,0,0,0,6.53,10.35q4.88,3.91,12.43,3.92a18,18,0,0,0,15-7.37,25,25,0,0,0,3.87-7.91A33.26,33.26,0,0,0,128.11,42a33.55,33.55,0,0,0-1.38-9.85,23.5,23.5,0,0,0-4-7.82,18.51,18.51,0,0,0-6.35-5.16A18.87,18.87,0,0,0,108,17.3a20.6,20.6,0,0,0-6.68,1.06,17.89,17.89,0,0,0-5.47,3,20.18,20.18,0,0,0-4.14,4.56A20.7,20.7,0,0,0,89,31.66h-.19V18.41H87v63.5ZM108,65Q99.31,65,94.06,59T88.81,42a29.31,29.31,0,0,1,1.29-8.75A22.63,22.63,0,0,1,93.83,26a18.08,18.08,0,0,1,6-5,17.56,17.56,0,0,1,8.1-1.84A17,17,0,0,1,116,21a16.41,16.41,0,0,1,5.71,5,23.51,23.51,0,0,1,3.4,7.27,31.91,31.91,0,0,1,1.15,8.7,32.63,32.63,0,0,1-1.06,8.24A23.47,23.47,0,0,1,122,57.57a17.85,17.85,0,0,1-5.66,5.34A15.91,15.91,0,0,1,108,65Zm30.28.73V38.93a26,26,0,0,1,1.1-7.55,18.45,18.45,0,0,1,3.41-6.48,15.8,15.8,0,0,1,5.84-4.42A17.7,17.7,0,0,1,157,19.14V17.3a23,23,0,0,0-7.41.92A18.24,18.24,0,0,0,144.13,21a14,14,0,0,0-3.68,4.1,18.13,18.13,0,0,0-2,5h-.18V18.41H136.4v47.3Zm21.07-23.28h39.58a32.81,32.81,0,0,0-1-9.39,23.33,23.33,0,0,0-3.68-8,18.82,18.82,0,0,0-6.53-5.61,20.16,20.16,0,0,0-9.53-2.12,19.41,19.41,0,0,0-14.36,6.49,24.66,24.66,0,0,0-4.6,7.78,29.5,29.5,0,0,0-1.75,10.49,38.36,38.36,0,0,0,1.2,9.8,23,23,0,0,0,3.68,7.92,16.65,16.65,0,0,0,6.4,5.2,21.25,21.25,0,0,0,9.43,1.75,20.68,20.68,0,0,0,13.62-4.56q5.52-4.56,6.54-12.84h-1.85q-1.19,7.83-6.12,11.74A19.29,19.29,0,0,1,178,65a19.06,19.06,0,0,1-8.56-1.75,15.51,15.51,0,0,1-5.71-4.79,21,21,0,0,1-3.27-7.13,38.61,38.61,0,0,1-1.15-8.88Zm37.74-1.84H159.31a28.71,28.71,0,0,1,1.84-8.93,22.17,22.17,0,0,1,4.1-6.76,17,17,0,0,1,5.89-4.28,17.67,17.67,0,0,1,7.22-1.48,18.22,18.22,0,0,1,8.1,1.71,16.76,16.76,0,0,1,5.85,4.64,20.67,20.67,0,0,1,3.54,6.86,27.93,27.93,0,0,1,1.2,8.24Zm40-8.19h1.84q0-7.92-4.6-11.51T221.8,17.3a21.83,21.83,0,0,0-7.45,1.11,14.69,14.69,0,0,0-5,2.85,10.2,10.2,0,0,0-2.76,3.87,11.15,11.15,0,0,0-.83,4.05,11.91,11.91,0,0,0,1.38,6.16,9,9,0,0,0,4.33,3.59,33.4,33.4,0,0,0,4.6,1.66q2.58.73,6,1.56l6,1.47a22.18,22.18,0,0,1,5.2,2,11.17,11.17,0,0,1,3.68,3.18,8.31,8.31,0,0,1,1.43,5.06A8.91,8.91,0,0,1,236.94,59a11.43,11.43,0,0,1-3.63,3.46,16.21,16.21,0,0,1-4.93,1.93,24.46,24.46,0,0,1-5.29.6q-8.37,0-12.84-3.73t-4.46-11.74H204q0,8.94,4.83,13.07t14.31,4.15a27.3,27.3,0,0,0,6.12-.7,17.11,17.11,0,0,0,5.53-2.25,12.43,12.43,0,0,0,3.95-4.05,11.37,11.37,0,0,0,1.52-6.07,10.27,10.27,0,0,0-1.33-5.53,11.21,11.21,0,0,0-3.5-3.49,18.85,18.85,0,0,0-4.88-2.17c-1.82-.52-3.64-1-5.47-1.51-2.26-.6-4.51-1.18-6.77-1.75a41.4,41.4,0,0,1-5.38-1.75,9.12,9.12,0,0,1-3.82-2.9,8.79,8.79,0,0,1-1.43-5.38,12.44,12.44,0,0,1,.37-2.31,8.25,8.25,0,0,1,1.75-3.36,11.83,11.83,0,0,1,4.23-3,18.77,18.77,0,0,1,7.82-1.34,24.56,24.56,0,0,1,6.22.74,12.82,12.82,0,0,1,4.83,2.35A10.72,10.72,0,0,1,236,26.32a15.05,15.05,0,0,1,1.1,6.08Zm42.61,0h1.84q0-7.92-4.6-11.51c-3.06-2.39-7.24-3.59-12.51-3.59A21.89,21.89,0,0,0,257,18.41a14.79,14.79,0,0,0-5,2.85,10.2,10.2,0,0,0-2.76,3.87,11.15,11.15,0,0,0-.83,4.05,11.91,11.91,0,0,0,1.38,6.16,9.08,9.08,0,0,0,4.33,3.59,33.4,33.4,0,0,0,4.6,1.66q2.58.73,6,1.56l6,1.47a22.43,22.43,0,0,1,5.21,2,11.27,11.27,0,0,1,3.68,3.18A8.31,8.31,0,0,1,281,53.84,9,9,0,0,1,279.56,59a11.56,11.56,0,0,1-3.64,3.46A16.15,16.15,0,0,1,271,64.38a24.55,24.55,0,0,1-5.3.6q-8.37,0-12.83-3.73T248.4,49.51h-1.84q0,8.94,4.83,13.07t14.31,4.15a27.46,27.46,0,0,0,6.13-.7,17.15,17.15,0,0,0,5.52-2.25,12.56,12.56,0,0,0,4-4.05,11.46,11.46,0,0,0,1.51-6.07,10.27,10.27,0,0,0-1.33-5.53,11.21,11.21,0,0,0-3.5-3.49,18.85,18.85,0,0,0-4.88-2.17c-1.82-.52-3.64-1-5.47-1.51q-3.37-.9-6.77-1.75a41.91,41.91,0,0,1-5.38-1.75,9.12,9.12,0,0,1-3.82-2.9,8.79,8.79,0,0,1-1.43-5.38,13.39,13.39,0,0,1,.37-2.31,8.38,8.38,0,0,1,1.75-3.36,11.83,11.83,0,0,1,4.23-3,18.82,18.82,0,0,1,7.83-1.34,24.48,24.48,0,0,1,6.21.74,12.82,12.82,0,0,1,4.83,2.35,10.72,10.72,0,0,1,3.13,4.09,14.88,14.88,0,0,1,1.1,6.08Z"/></g></g></svg>