<svg xmlns="http://www.w3.org/2000/svg" viewBox="0 0 282.97 89.87"><defs><style>.cls-1{fill:#ffa000;}.cls-2{fill:#f57f17;}.cls-3{fill:#ffca28;}.cls-4{fill:#63666a;}</style></defs><g id="Layer_2" data-name="Layer 2"><g id="Layer_1-2" data-name="Layer 1"><path class="cls-1" d="M42.61,32.46l-9,8.37L25.27,24l4.31-9.68c1.09-1.93,2.88-2,4,0Z"/><path class="cls-2" d="M33.62,40.83,0,72.1,25.28,24Z"/><path class="cls-3" d="M52.46,19.66c1.61-1.53,3.27-1,3.69,1.16l8.74,50.85-29,17.41a13.29,13.29,0,0,1-3.71.79,13.65,13.65,0,0,1-3.4-.82L0,72.1Z"/><path class="cls-1" d="M25.28,24,0,72.1,11.27,1.79c.42-2.18,1.65-2.4,2.77-.47Z"/><path class="cls-4" d="M87.79,68.27H82.54V27.37h23.85v5H87.79V45.82h16.8v4.91H87.79Zm27.83-35A3.57,3.57,0,0,1,113,34.34a3.72,3.72,0,0,1-3.72-3.72A3.72,3.72,0,0,1,113,26.91,3.5,3.5,0,0,1,115.62,28a3.71,3.71,0,0,1,0,5.25Zm0,35h-5.25v-28h5.25Zm11.35,0h-5.26v-28h5v4.57H127a7.13,7.13,0,0,1,3.29-3.77,9.35,9.35,0,0,1,4.83-1.49,9.83,9.83,0,0,1,3.94.69l-2,4.91a7.41,7.41,0,0,0-2.8-.4,6.84,6.84,0,0,0-5.05,2.26A8.12,8.12,0,0,0,127,53V68.27Zm25.87.88a13.51,13.51,0,0,1-10.31-4.23,15,15,0,0,1-4-10.68,15.49,15.49,0,0,1,3.83-10.51,12.53,12.53,0,0,1,9.85-4.4,13,13,0,0,1,10,4.06Q166,47.44,166,54.24l-.06,1H143.81a9.48,9.48,0,0,0,2.83,6.68,8.58,8.58,0,0,0,6.08,2.46q5.66,0,7.66-4.8l4.71,1.94A12.4,12.4,0,0,1,160.57,67a13.13,13.13,0,0,1-7.71,2.19Zm7.54-18.25a7.5,7.5,0,0,0-2.2-4.57q-2-2.17-6-2.17A7.58,7.58,0,0,0,147.1,46a9.31,9.31,0,0,0-2.94,4.92h16.22ZM185,69.15a11.86,11.86,0,0,1-5.75-1.37,10,10,0,0,1-3.82-3.43h-.2v3.89h-5V27.37h5.26V40.28l-.23,3.88h.23a9.54,9.54,0,0,1,3.83-3.42A11.91,11.91,0,0,1,185,39.36a12.27,12.27,0,0,1,9.37,4.29,15.24,15.24,0,0,1,3.94,10.6,15,15,0,0,1-3.94,10.6A12.44,12.44,0,0,1,185,69.13Zm-.89-4.8a8.36,8.36,0,0,0,6.29-2.77A10.26,10.26,0,0,0,193,54.24a10.29,10.29,0,0,0-2.62-7.34,8.38,8.38,0,0,0-6.29-2.76,8.28,8.28,0,0,0-6.31,2.73,10.35,10.35,0,0,0-2.6,7.37,10.26,10.26,0,0,0,2.6,7.37,8.37,8.37,0,0,0,6.31,2.75Zm28,4.8a11.22,11.22,0,0,1-7.45-2.57,8.47,8.47,0,0,1-3-6.77,8.38,8.38,0,0,1,3.55-7.17A14.38,14.38,0,0,1,214,50a15.08,15.08,0,0,1,7.6,1.71V51A6.25,6.25,0,0,0,219.44,46a7.61,7.61,0,0,0-5.2-1.85,8,8,0,0,0-4.14,1.09,5.54,5.54,0,0,0-2.54,3l-4.8-2.06a10.84,10.84,0,0,1,3.83-4.65,12.29,12.29,0,0,1,7.54-2.14A12.9,12.9,0,0,1,223,42.51q3.54,3.14,3.54,8.85V68.27h-5V64.38h-.23a10.29,10.29,0,0,1-9.19,4.8Zm.89-4.8a8.55,8.55,0,0,0,5.91-2.43,7.53,7.53,0,0,0,2.65-5.74c-1.48-1.22-3.71-1.82-6.68-1.82-2.55,0-4.48.55-5.77,1.65a5,5,0,0,0-1.94,3.89A3.73,3.73,0,0,0,209,63.16a7.06,7.06,0,0,0,4.06,1.2Zm28.85,4.8a12.6,12.6,0,0,1-7.74-2.28,13.56,13.56,0,0,1-4.49-5.72l4.71-1.94c1.49,3.53,4,5.26,7.6,5.26a6.9,6.9,0,0,0,4-1.09,3.33,3.33,0,0,0,1.57-2.86c0-1.82-1.27-3.06-3.83-3.71l-5.65-1.37a13.62,13.62,0,0,1-5.09-2.6,6.18,6.18,0,0,1-2.39-5.14,7.07,7.07,0,0,1,3.29-6A14.11,14.11,0,0,1,248.31,41a9.59,9.59,0,0,1,4.17,4.83l-4.57,1.89c-1-2.48-3.16-3.71-6.4-3.71a7.16,7.16,0,0,0-3.94,1,3,3,0,0,0-1.6,2.63c0,1.59,1.23,2.68,3.71,3.25l5.54,1.32a10.49,10.49,0,0,1,5.83,3.14,7.54,7.54,0,0,1,1.88,5,7.81,7.81,0,0,1-3.08,6.29,12.21,12.21,0,0,1-7.94,2.51Zm28,0a13.49,13.49,0,0,1-10.31-4.23,15,15,0,0,1-4-10.68,15.53,15.53,0,0,1,3.82-10.51,12.55,12.55,0,0,1,9.86-4.4,13,13,0,0,1,10,4.06Q283,47.44,283,54.24v1H260.89a9.47,9.47,0,0,0,2.82,6.68,8.58,8.58,0,0,0,6.08,2.46q5.65,0,7.66-4.8l4.71,1.94A12.38,12.38,0,0,1,277.65,67a13.18,13.18,0,0,1-7.72,2.19ZM277.4,50.9a7.5,7.5,0,0,0-2.2-4.57q-2-2.17-6-2.17A7.49,7.49,0,0,0,264.12,46a9.32,9.32,0,0,0-2.95,4.91H277.4Z"/></g></g></svg>