<svg xmlns="http://www.w3.org/2000/svg" viewBox="0 0 281.62 117.63"><defs><style>.cls-1{fill:#2f2707;}.cls-2{fill:#de4c36;}</style></defs><g id="Layer_2" data-name="Layer 2"><g id="Layer_1-2" data-name="Layer 1"><path class="cls-1" d="M168.78,40c-6.18,0-10.78,3-10.78,10.33,0,5.49,3,9.31,10.44,9.31,6.29,0,10.55-3.7,10.55-9.54,0-6.62-3.82-10.1-10.21-10.1ZM156.43,91.56c-1.46,1.79-2.92,3.7-2.92,6,0,4.48,5.73,5.83,13.59,5.83,6.5,0,15.37-.45,15.37-6.51,0-3.59-4.26-3.81-9.65-4.15l-16.39-1.12Zm33.22-51.18a17.77,17.77,0,0,1,4.16,11.33c0,12.46-9.77,19.76-23.91,19.76a35.61,35.61,0,0,1-8.86-1l-3.71,5.94,11,.68c19.42,1.23,30.86,1.8,30.86,16.72,0,12.91-11.33,20.2-30.86,20.2-20.32,0-28.06-5.16-28.06-14,0-5,2.24-7.74,6.17-11.45a7.48,7.48,0,0,1-4.94-7.4c0-2.47,1.24-4.71,3.26-6.85s4.26-4.26,7-6.73c-5.5-2.7-9.66-8.53-9.66-16.84,0-12.91,8.54-21.77,25.7-21.77a38.4,38.4,0,0,1,10.33,1.12H200v9.54l-10.33.79ZM219.73,20c-6.4,0-10.1-3.71-10.1-10.11S213.33,0,219.73,0s10.21,3.48,10.21,9.87S226.24,20,219.73,20ZM205.25,87.43V78.57l5.72-.79c1.57-.22,1.8-.56,1.8-2.24v-33c0-1.23-.34-2-1.46-2.36l-6.06-2.13L206.48,29h23.24V75.54c0,1.79.1,2,1.79,2.25l5.73.78v8.86Zm76.37-4.35a45,45,0,0,1-18.3,4.49c-13.35,0-18.4-5.39-18.4-18.07V40.09c0-.67,0-1.12-.9-1.12h-7.86V29c9.88-1.13,13.81-6.06,15-18.3h10.66V26.62c0,.79,0,1.13.9,1.13h15.83V39H261.86V65.79c0,6.62,1.58,9.2,7.64,9.2a26.78,26.78,0,0,0,9.09-1.79l3,9.88"/><path class="cls-2" d="M115.32,53.63,64,2.31a7.56,7.56,0,0,0-10.7,0h0L42.64,13,56.16,26.48A9,9,0,0,1,67.54,37.94l13,13a9,9,0,0,1,9.31,14.87h0a9,9,0,0,1-14.69-9.8L63,43.9v32a9.11,9.11,0,0,1,2.38,1.71,9,9,0,0,1,0,12.73h0a9,9,0,1,1-9.79-14.71V43.34a8.91,8.91,0,0,1-2.95-2,9,9,0,0,1-1.94-9.85L37.4,18.2,2.22,53.39a7.56,7.56,0,0,0,0,10.7h0l51.32,51.31a7.56,7.56,0,0,0,10.7,0l51.08-51.08a7.56,7.56,0,0,0,0-10.7"/></g></g></svg>