<svg xmlns="http://www.w3.org/2000/svg" viewBox="0 0 125.89 122.74"><defs><style>.cls-1{fill:#300;}.cls-2{fill:#ff9a00;}</style></defs><g id="Layer_2" data-name="Layer 2"><g id="Layer_1-2" data-name="Layer 1"><g id="Layer_2-2" data-name="Layer 2"><g id="Surfaces"><g id="Drawing_Surface" data-name="Drawing Surface"><g id="Outline_no_shadow" data-name="Outline no shadow"><path class="cls-1" d="M22.29,0h81.3a22.28,22.28,0,0,1,22.3,22.29v78.16a22.28,22.28,0,0,1-22.3,22.29H22.29A22.28,22.28,0,0,1,0,100.45V22.29A22.28,22.28,0,0,1,22.29,0Z"/></g></g></g><g id="Outlined_Mnemonics_Logos" data-name="Outlined Mnemonics Logos"><g id="Ai"><path class="cls-2" d="M61,73.64H41.49L37.5,86a.9.9,0,0,1-1,.73H26.65c-.58,0-.74-.31-.58-.94L43,37.14c.16-.53.31-1.11.52-1.73A18.41,18.41,0,0,0,43.8,32a.52.52,0,0,1,.42-.58H57.8c.42,0,.63.16.68.42l19.15,54c.16.58,0,.84-.53.84h-11a.8.8,0,0,1-.84-.57ZM44.53,63H57.85c-.31-1.11-.73-2.42-1.2-3.78s-.95-2.94-1.42-4.51-1-3.2-1.52-4.83-1-3.14-1.42-4.67-.78-2.83-1.15-4.09H51a65.07,65.07,0,0,1-1.79,6.77c-.78,2.52-1.57,5.14-2.41,7.76S45.32,60.79,44.53,63Z"/><path class="cls-2" d="M89.06,40.39a6.46,6.46,0,0,1-4.66-1.84,6.8,6.8,0,0,1-1.79-4.82,6.16,6.16,0,0,1,1.89-4.67,6.71,6.71,0,0,1,4.67-1.84,6.27,6.27,0,0,1,4.77,1.84,6.57,6.57,0,0,1,1.73,4.67,6.59,6.59,0,0,1-1.83,4.82A6.19,6.19,0,0,1,89.06,40.39ZM83.19,85.92V45.53c0-.53.21-.74.68-.74H94.26c.47,0,.68.27.68.74V85.92c0,.57-.21.84-.68.84H84A.74.74,0,0,1,83.19,85.92Z"/></g></g></g></g></g></svg>