<svg xmlns="http://www.w3.org/2000/svg" viewBox="0 0 282.82 98.66"><defs><style>.cls-1{fill:#4e8ef7;}</style></defs><g id="Layer_2" data-name="Layer 2"><g id="Layer_1-2" data-name="Layer 1"><rect class="cls-1" x="125.76" y="36.64" width="2.04" height="38.61"/><path class="cls-1" d="M156.8,35.69a19.87,19.87,0,0,0-20.33,20.25c0,11.59,8.74,20.26,20.33,20.26a19.82,19.82,0,0,0,20.32-20.26A19.86,19.86,0,0,0,156.8,35.69Zm0,38.61a17.91,17.91,0,0,1-18.29-18.36,18.29,18.29,0,1,1,36.57,0A17.91,17.91,0,0,1,156.8,74.3Z"/><path class="cls-1" d="M215.66,39.55c-4.37-3.57-9.62-3.86-12.31-3.86-6.12,0-12.9,2.84-15.3,8.38h-.15V36.64h-2V75.25h2V53c0-9.69,6-15.44,15.66-15.44,5.83,0,9,1.89,10.93,3.64,2.91,2.62,4.74,6.92,4.74,13.62v20.4h2V54.85C221.27,47.93,219.45,42.76,215.66,39.55Z"/><rect class="cls-1" x="232.56" y="36.64" width="2.04" height="38.61"/><path class="cls-1" d="M263.59,74.3a18,18,0,0,1-18.28-18.36c0-5.24,2.18-10.34,5.31-13.18,4-3.57,7.58-5.17,13-5.17,7.58,0,14.28,4.22,16.9,11.58h2.26c-3.06-9.11-11.36-13.48-19.23-13.48A19.89,19.89,0,0,0,243.26,56c0,12,9.11,20.18,20.33,20.18,9.18,0,16.47-5.25,19.16-13.12h-2.26C278.6,68.84,272.33,74.3,263.59,74.3Z"/><path class="cls-1" d="M126.78,22.47a2.2,2.2,0,1,1-2.2,2.2A2.2,2.2,0,0,1,126.78,22.47Z"/><path class="cls-1" d="M233.58,22.47a2.2,2.2,0,1,1-2.2,2.2A2.2,2.2,0,0,1,233.58,22.47Z"/><circle class="cls-1" cx="49.33" cy="49.33" r="20.14"/><path class="cls-1" d="M90.44,15.15a6.93,6.93,0,0,0-6.93-6.92A6.84,6.84,0,0,0,79,9.93a49.36,49.36,0,1,0,9.76,9.76A6.94,6.94,0,0,0,90.44,15.15ZM49.33,97A47.67,47.67,0,1,1,77.86,11.16a6.92,6.92,0,0,0,9.64,9.65A47.64,47.64,0,0,1,49.33,97Z"/></g></g></svg>