<svg xmlns="http://www.w3.org/2000/svg" viewBox="0 0 282.82 80.58"><defs><style>.cls-1{fill:#8e714e;}.cls-1,.cls-2,.cls-3,.cls-4,.cls-5,.cls-6{fill-rule:evenodd;}.cls-2{fill:#442d22;}.cls-3{fill:#fff;}.cls-4{fill:#a6a385;}.cls-5{fill:#499d4a;}.cls-6{fill:#58aa50;}</style></defs><g id="Layer_2" data-name="Layer 2"><g id="Layer_1-2" data-name="Layer 1"><path class="cls-1" d="M263.63,33.33c-.25.05-.51.61-.51.91-.05,2-.1,7.45-.1,11.13a.39.39,0,0,0,.31.31c.76,0,2.6.1,4.18.1a11.08,11.08,0,0,0,4.19-.61,5.43,5.43,0,0,0,2.7-5.11c0-5-3.47-6.84-8.62-6.84a8,8,0,0,0-2.15.11ZM276.8,56.14c0-5-3.72-7.86-10.46-7.86-.31,0-2.45-.05-3,0-.15.05-.36.15-.36.31,0,3.62,0,9.39.1,11.63A3.89,3.89,0,0,0,264.81,63a11.7,11.7,0,0,0,4.44.61c4,0,7.55-2.25,7.55-7.5ZM253.22,30.52c.51,0,2,.15,6,.15,3.73,0,6.69-.1,10.31-.1,4.44,0,10.57,1.58,10.57,8.22,0,3.26-2.3,5.87-5.31,7.14-.15,0-.15.15,0,.2,4.29,1.08,8.06,3.73,8.06,8.73s-3.06,8-7.5,10a24.26,24.26,0,0,1-9.49,1.59c-2.6,0-9.6-.31-13.47-.21-.41-.15.35-2,.71-2.3a9.67,9.67,0,0,0,2.6-.4c1.38-.36,1.53-.77,1.74-2.86.1-1.79.1-8.12.1-12.61,0-6.17.05-10.36,0-12.4-.05-1.58-.61-2.09-1.73-2.4-.87-.15-2.3-.35-3.48-.51-.25-.25.62-2,.92-2.19ZM223.78,62.26c1.22,1,3.62,1.38,5.76,1.38a11.31,11.31,0,0,0,8.17-2.91c2.7-2.45,4.59-6.23,4.59-12.25,0-5.76-2.19-10.46-6.68-13.22A18.09,18.09,0,0,0,226,33a7.6,7.6,0,0,0-2.86.36,1.51,1.51,0,0,0-.51.81c-.1,1-.1,8.88-.1,13.48s0,11.38.1,12.14a3.15,3.15,0,0,0,1.13,2.45ZM212.19,30.52c1,0,4.7.15,6.48.15,3.22,0,5.52-.15,11.59-.15,5.1,0,9.39,1.38,12.45,4a16.52,16.52,0,0,1,5.67,13.06c0,7.71-3.53,12.15-7,14.7s-8.11,4.14-14.64,4.14c-3.47,0-9.45-.11-14.4-.16h0c-.25-.46.41-2.24.82-2.29a8.58,8.58,0,0,0,2.35-.46c1.07-.41,1.27-1,1.43-2.86.15-3.52.1-7.76.1-12.56,0-3.41.05-10.1-.05-12.24-.16-1.79-.92-2.25-2.45-2.56-.77-.15-1.79-.35-3.22-.51-.2-.35.72-1.94,1-2.24Z"/><path class="cls-2" d="M150.44,64.25a10.3,10.3,0,0,1-3.32-.87,1.55,1.55,0,0,1-.4-.81c-.11-1.79-.11-6.89-.11-10.31A12.05,12.05,0,0,0,145,45.42a7,7,0,0,0-5.92-3.06c-2.24,0-5.26,1.53-7.76,3.67-.05,0-.46.41-.41-.15s.11-1.68.16-2.45a1.33,1.33,0,0,0-.36-1.07,34.26,34.26,0,0,1-7.91,2c-1.22.26-1.53,1.43-.25,1.84h0a11.26,11.26,0,0,1,3,1.32,1.59,1.59,0,0,1,.46,1.43c0,3.83,0,9.7-.11,12.91,0,1.28-.4,1.74-1.32,1.94l.1-.05a18.14,18.14,0,0,1-2.14.41,3,3,0,0,0,0,2.3c.56,0,3.52-.16,6-.16,3.37,0,5.1.16,6,.16a3.28,3.28,0,0,0,.25-2.3,9.07,9.07,0,0,1-2.34-.36c-.92-.2-1.18-.66-1.23-1.73-.1-2.71-.1-8.42-.1-12.3a2.5,2.5,0,0,1,.61-1.89,7.73,7.73,0,0,1,4.75-1.73A5.3,5.3,0,0,1,140,47.36a5,5,0,0,1,1.63,3.21c.26,2.2.16,6.54.16,10.31,0,2-.16,2.56-.92,2.81a9.87,9.87,0,0,1-2.35.46,3,3,0,0,0,0,2.3c1.48,0,3.21-.16,5.77-.16,3.16,0,5.2.16,6,.16a3.57,3.57,0,0,0,.15-2.2Zm14.14-19.49c-2.71,0-4.39,2.09-4.39,5.36s1.48,7.14,5.66,7.14a4,4,0,0,0,2.66-1,6.77,6.77,0,0,0,1.63-4.7c0-4.23-2.09-6.78-5.56-6.78Zm-.36,22.55a4.29,4.29,0,0,0-2.19.57c-2.15,1.37-3.12,2.7-3.12,4.28a4.51,4.51,0,0,0,1.79,3.68,9.09,9.09,0,0,0,6.12,1.88c5.21,0,7.51-2.8,7.51-5.56a3.91,3.91,0,0,0-3-3.93,20.73,20.73,0,0,0-7.15-.92Zm.36,13.27a11.29,11.29,0,0,1-7.3-2.14,6.73,6.73,0,0,1-2.71-5,3.92,3.92,0,0,1,1-2.55,26.42,26.42,0,0,1,4.69-3.78c.1,0,.15-.1.15-.21a.33.33,0,0,0-.2-.25,4.87,4.87,0,0,1-3.32-3.22v-.1a.74.74,0,0,1,.31-.92c.36-.25.87-.56,1.43-.91A21.63,21.63,0,0,0,161,59.91a.35.35,0,0,0,.11-.3.36.36,0,0,0-.21-.26c-3.57-1.17-5.36-3.83-5.36-7.81a7.76,7.76,0,0,1,3.27-6.43,15,15,0,0,1,7.35-2.5h.15a15.54,15.54,0,0,1,5.62,1.23,9.36,9.36,0,0,0,3.31.51A4.43,4.43,0,0,0,178.82,43a2.84,2.84,0,0,1,.2,1,3.85,3.85,0,0,1-.66,2.35,2.91,2.91,0,0,1-2.25,1h-.25a11.69,11.69,0,0,1-1.33-.2l-.2.1c-.06.1,0,.2,0,.35l.05.11a19,19,0,0,1,.3,2.19c0,4.19-1.68,6-3.47,7.4a11.73,11.73,0,0,1-6,2.3,6.5,6.5,0,0,0-.71,0c-.26,0-.61.05-.67.05h0c-.41.1-1.43.61-1.43,1.48s.46,1.68,2.66,1.84c.46,0,.92,0,1.43.1,2.91.2,6.53.46,8.21,1a5.72,5.72,0,0,1,3.83,5.46c0,3.78-2.7,7.3-7.19,9.49a16.44,16.44,0,0,1-6.79,1.48ZM193.67,45a4.77,4.77,0,0,0-2.76.77c-2,1.22-3,3.67-3,7.24,0,6.69,3.37,11.39,8.17,11.39a5.19,5.19,0,0,0,3.52-1.23c1.48-1.23,2.24-3.67,2.24-7.09,0-6.64-3.32-11.08-8.16-11.08Zm.92,21.84c-8.68,0-11.79-6.37-11.79-12.35a11,11,0,0,1,5-9.69,15.38,15.38,0,0,1,7.81-2.3c6.63,0,11.28,4.75,11.28,11.59,0,4.64-1.84,8.31-5.36,10.56a14.22,14.22,0,0,1-7,2.19ZM103.64,45a4.72,4.72,0,0,0-2.75.77c-2,1.22-3,3.67-3,7.24,0,6.69,3.36,11.39,8.16,11.39a5.17,5.17,0,0,0,3.52-1.23c1.48-1.23,2.25-3.67,2.25-7.09,0-6.64-3.27-11.08-8.17-11.08Zm.92,21.84c-8.67,0-11.79-6.37-11.79-12.35a11.05,11.05,0,0,1,5-9.69,15.38,15.38,0,0,1,7.81-2.3c6.64,0,11.28,4.75,11.28,11.59,0,4.64-1.84,8.31-5.36,10.56a13.83,13.83,0,0,1-7,2.19Zm-58.33-.51a2.11,2.11,0,0,1-.15-1.17,1.71,1.71,0,0,1,.15-.76A20.62,20.62,0,0,0,48.47,64c1-.26,1.43-.82,1.48-2.1.16-3.06.16-8.88.11-12.91v-.1a1.55,1.55,0,0,0-.56-1.43,11.63,11.63,0,0,0-3.07-1.33c-.46-.15-.76-.4-.71-.71s.31-.66,1-.77a37,37,0,0,0,7.81-2,1.31,1.31,0,0,1,.25.82l0,.56c-.05.56-.1,1.23-.1,1.89a.4.4,0,0,0,.41.36.61.61,0,0,0,.3-.11c3.27-2.55,6.23-3.47,7.76-3.47A6.61,6.61,0,0,1,69,46.29a.39.39,0,0,0,.36.2.36.36,0,0,0,.3-.15c3-2.3,6-3.68,8-3.68,4.74,0,7.55,3.53,7.55,9.5,0,1.68,0,3.88,0,5.87,0,1.78,0,3.41,0,4.59A1.58,1.58,0,0,0,86,63.84a10.9,10.9,0,0,0,3,.72h0a4.06,4.06,0,0,1-.31,1.94,12.62,12.62,0,0,1-1.27,0c-1.3-.07-2.59-.11-3.88-.11-3.17,0-4.8.06-6.38.16a4.87,4.87,0,0,1,0-1.94,16.16,16.16,0,0,0,1.94-.46c1-.31,1.27-.77,1.32-2.09,0-1,.21-9.24-.1-11.23a5,5,0,0,0-5.2-4.44,9,9,0,0,0-5.21,2,.92.92,0,0,0-.2.51v0a24.09,24.09,0,0,1,.2,4.19v3.31c0,2.3,0,4.44,0,6.08a1.5,1.5,0,0,0,1.23,1.58l.76.15,1.63.36a2.61,2.61,0,0,1,0,1.43,1,1,0,0,1-.2.51c-1.74,0-3.52-.1-6.13-.1-.76,0-2.09,0-3.21,0-.92,0-1.79,0-2.3,0a2.75,2.75,0,0,1-.15-1,1.62,1.62,0,0,1,.2-.92,3.57,3.57,0,0,1,.72-.1l1.63-.31c.87-.26,1.18-.71,1.23-1.84.15-2.55.3-9.85,0-11.68-.62-3-2.3-4.44-5-4.44a9.31,9.31,0,0,0-5.2,2,1.61,1.61,0,0,0-.46,1.17v3c0,3.68,0,8.27,0,10.26a1.57,1.57,0,0,0,1.43,1.58c.25,0,.66.15,1.17.21l.92.15A4.39,4.39,0,0,1,58,66.5c-.51,0-1.12,0-1.84,0-1.07,0-2.45-.11-4-.11-1.79,0-3.06.06-4.08.11a11.55,11.55,0,0,0-1.89-.11Z"/><path class="cls-3" d="M19.39,78.59l-2.1-.71s.26-10.67-3.57-11.43c-2.55-3,.41-125.55,9.6-.41,0,0-3.17,1.58-3.73,4.28s-.2,8.27-.2,8.27Z"/><path class="cls-4" d="M19.39,78.59l-2.1-.71s.26-10.67-3.57-11.43c-2.55-3,.41-125.55,9.6-.41,0,0-3.17,1.58-3.73,4.28s-.2,8.27-.2,8.27Z"/><path class="cls-3" d="M20.51,68.28s18.32-12,14-37.1C30.41,13,20.66,7,19.59,4.7A26.36,26.36,0,0,1,17.29.2l.77,50.68s-1.58,15.52,2.45,17.4"/><path class="cls-5" d="M20.51,68.28s18.32-12,14-37.1C30.41,13,20.66,7,19.59,4.7A26.36,26.36,0,0,1,17.29.2l.77,50.68s-1.58,15.52,2.45,17.4"/><path class="cls-3" d="M16.22,69S-1,57.21,0,36.54,13.16,5.72,15.51,3.88A4.75,4.75,0,0,0,17.19,0c1.07,2.3.87,34.35,1,38.12C18.67,52.67,17.4,66.19,16.22,69Z"/><path class="cls-6" d="M16.22,69S-1,57.21,0,36.54,13.16,5.72,15.51,3.88A4.75,4.75,0,0,0,17.19,0c1.07,2.3.87,34.35,1,38.12C18.67,52.67,17.4,66.19,16.22,69Z"/></g></g></svg>