<svg xmlns="http://www.w3.org/2000/svg" viewBox="0 0 282.82 109.38"><defs><style>.cls-1,.cls-2{fill:#ea2845;}.cls-1{fill-rule:evenodd;}</style></defs><g id="Layer_2" data-name="Layer 2"><g id="Layer_1-2" data-name="Layer 1"><path class="cls-1" d="M64.68,0a6.48,6.48,0,0,0-2.21.41,6.29,6.29,0,0,1,2.64,3.7c0,.21.08.34.1.54a5,5,0,0,1,.06.51c.11,2.5-.65,2.81-1.19,4.29a6.09,6.09,0,0,0,.4,5.58,3.83,3.83,0,0,0,.34.63c-1.08-7.18,4.9-8.26,6-10.49.09-2-1.54-3.26-2.8-4.17a6.25,6.25,0,0,0-3.35-1Zm9,1.61a4.48,4.48,0,0,0-.06.83l-.06.74-.21.68a5.25,5.25,0,0,1-.22.67l-.31.65c-.08.1-.15.23-.23.34l-.17.26L72,6.34a4.26,4.26,0,0,1-.52.52c-.2.14-.34.34-.53.48-.6.45-1.28.79-1.9,1.23A3.83,3.83,0,0,0,68.5,9c-.15.15-.37.28-.53.45s-.34.34-.52.53a2.9,2.9,0,0,0-.41.57l-.41.59-.31.65-.23.65-.2.72c0,.1,0,.26-.06.37s0,.23-.06.34l0,.72a2.19,2.19,0,0,0,0,.51,3.86,3.86,0,0,0,.08.72c.05.27.08.45.14.68l.23.68c.06.14.14.29.2.41l-6.51-2.53-3.29-.85-1.79-.41A50.13,50.13,0,0,0,49.67,13a45.71,45.71,0,0,0-5.23-.29l-3.7.14q-2.61.19-5.19.63l-1.27.23-2.55.56-1.28.34-1.23.53-.93.42-.92.45-.21.08-.88.45a6,6,0,0,0-.57.29c-.08.06-.2.1-.25.14l-.75.42c-.25.14-.48.28-.67.41l-.57.41-.62.45-.48.41c-.31.23-.45.37-.6.48l-.61.6-.57.54-.48.51c-.06.06-.14.1-.21.17a5.68,5.68,0,0,1-.48.52l-.76.82-1.54,1.47a16.2,16.2,0,0,1-1.59,1.25l-1.7,1.07a17.29,17.29,0,0,1-1.79.86c-.6.25-1.23.48-1.85.68a31.25,31.25,0,0,1-3.47.82c-.22,0-.48.06-.72.08l-.72.18-.67.25c-.23.09-.46.21-.68.31a3.5,3.5,0,0,0-.62.41,5.27,5.27,0,0,0-.57.49,3.43,3.43,0,0,0-.56.51l-.48.57a4.06,4.06,0,0,0-.41.64c-.11.24-.29.41-.42.65l-.3.74-.26.74-.15.68a6,6,0,0,0-.1.85,5,5,0,0,0-.06.57,1.58,1.58,0,0,0,0,.37c0,.2.06.37.1.53L.34,38a2.73,2.73,0,0,0,.31.53L1,39l.48.45a4.6,4.6,0,0,0,.54.45,6.09,6.09,0,0,0,1.72,1.23,4.93,4.93,0,0,0,.46.23,7.16,7.16,0,0,1,.25.85,3.87,3.87,0,0,0,.23.68l.22.52.42.76.41.59.48.54c.17.17.34.31.53.48l.57.41a4,4,0,0,0,.63.37,4.21,4.21,0,0,0,.64.31c.18.08.38.14.57.21l.48.14a11.93,11.93,0,0,0,.11,3.5c.25.56,1.5-1.17,2.75-3.15-.17,2.06-.29,4.26,0,4.93s2-1.5,3.5-3.94a32.8,32.8,0,0,1,40.4,28.87c-.37-3.07-4.14-4.76-5.86-4.34a14.78,14.78,0,0,1-4.63,6.47,18,18,0,0,0-.28-5.67,18.31,18.31,0,0,1-3.52,7.14A7.93,7.93,0,0,1,35.31,78c-.1-.08-.14-.26-.22-.37l-.3-.7a2.86,2.86,0,0,1-.17-.6,3,3,0,0,1,0-.61v-.41a5.26,5.26,0,0,1,.15-.6l.2-.6a5.66,5.66,0,0,1,.34-.59c.49-1.36.49-2.47-.41-3.12-.17-.1-.34-.2-.53-.29L34,70l-.23-.08-.6-.14a2,2,0,0,0-.59-.09q-.32,0-.63-.06c-.14,0-.29,0-.41,0a2.51,2.51,0,0,0-.62.08l-.59.11-.6.2-.56.26-.54.29C22,74.93,25.92,85,30.44,87.94a13.89,13.89,0,0,0-3.91,1,29,29,0,0,0,3.78,2.06L34.9,92.4a26,26,0,0,0,7.15.54,27,27,0,0,0,24.73-23l.18.74.26,1.58a6.39,6.39,0,0,1,.1.76l.06.86.06.92v.45c0,.15,0,.31,0,.46s0,.34,0,.51v.41c0,.21,0,.37,0,.57a1.76,1.76,0,0,1,0,.37l0,.61a.8.8,0,0,0,0,.26l-.08.65a.8.8,0,0,1,0,.26l-.11.82v0l-.17.79-.18.85-.45,1.75-.29.91-.61,1.64-.34.82-.41.8a1.59,1.59,0,0,0-.09.2,27.05,27.05,0,0,1-8,9.61c-.22.15-.45.31-.67.49s-.15.08-.21.14L55,98.6l.09.18h0l1.19-.18h0l2.21-.41a4.61,4.61,0,0,0,.62-.14l.41-.08.59-.11.52-.14A53.88,53.88,0,0,0,68.94,95a45.41,45.41,0,0,1-17.61,14.39A46.73,46.73,0,0,0,61,107.7a45.3,45.3,0,0,0,26.8-21.41,45.28,45.28,0,0,1-7.63,18.23,44.39,44.39,0,0,0,19.5-30.4,45.23,45.23,0,0,1,.82,13.68c20.48-28.56,1.71-58.17-6.16-66a2.29,2.29,0,0,0-.17.88l-.29,1.9-.48,1.87-.68,1.82L91.87,30l-1,1.61-1.16,1.55c-.41.51-.89,1-1.34,1.42l-.82.71-.65.57A16,16,0,0,1,85.29,37l-1.68,1-1.79.79a16.43,16.43,0,0,1-1.84.59l-1.9.42c-.65.1-1.3.17-1.93.22l-1.36.06c-.65,0-1.3-.06-1.93-.1a13.81,13.81,0,0,1-1.93-.28A12.71,12.71,0,0,1,69,39.19h0L70.87,39l1.9-.41L74.62,38a19.41,19.41,0,0,0,1.79-.8,18.68,18.68,0,0,0,1.7-.93l1.59-1a15.88,15.88,0,0,0,1.45-1.27,15.85,15.85,0,0,0,1.33-1.39L83.68,31a2.75,2.75,0,0,1,.17-.29l.82-1.36.86-1.73.67-1.82A18.6,18.6,0,0,0,86.69,24l.29-1.9.1-1.93,0-1.36-.23-1.9L86.39,15l-.62-1.82A17.29,17.29,0,0,0,85,11.39L84,9.72,83,8.15,81.68,6.71,80.94,6,77,3.22c-.2-.1-.37-.21-.56-.29a11,11,0,0,0-2.7-1.19Z"/><path class="cls-2" d="M130.46,73.91a8.84,8.84,0,0,1,2.07-.69,10.19,10.19,0,0,0,2.75-.65,2.19,2.19,0,0,0,.87-.94,17.58,17.58,0,0,0,.26-3.84V64l0-3.06-.14-4.58V53.7a18,18,0,0,0-.43-4.44A2.33,2.33,0,0,0,134.8,48a12.28,12.28,0,0,0-4.09-1.73l0-2,1-.21c.3,0,1.47-.35,3.49-.86l3.06-1.21.72-.39a11,11,0,0,1,1.17-.86,17.78,17.78,0,0,0,3.1-3.15l2.28-.17-.08,4.87c0,.48,0,.87,0,1.16l0,2A25.81,25.81,0,0,1,152,41a18.54,18.54,0,0,1,7.3-1.59,12.75,12.75,0,0,1,7.15,2,10.48,10.48,0,0,1,4.12,4.63c.72,1.75.94,5.34.94,10.65l-.17,14.15a3.68,3.68,0,0,0,.35,1.63,7.5,7.5,0,0,0,2.41.65l2.12.39a2.34,2.34,0,0,1,.39,1.38l0,1.42L168,75.74l-2.5.08h-2l-5.74.43h-1.47a7.63,7.63,0,0,1,0-.86l.08-1.69c.39-.08,1.42-.2,3-.43a10.26,10.26,0,0,0,1.47-.31,1.6,1.6,0,0,0,1-.69,8,8,0,0,0,.35-2.8l-.08-5.61,0-5q0-9.2-1-11.38a5.21,5.21,0,0,0-5-3.29,11.74,11.74,0,0,0-5,1.25,21.44,21.44,0,0,0-5.39,3.75l-.08.72.08,2.72,0,2.88.18,6.94-.09,1.07c0,4.7.18,7.38.57,8s1.81,1.26,4.32,2l.13,1.08a8.14,8.14,0,0,1-.31,1.59l-2.28,0a22.69,22.69,0,0,1-2.85-.26l-4.75,0-10,.31a2.33,2.33,0,0,1-.18-.9l.05-1.38Zm50.93-20.62a17.69,17.69,0,0,1,2-4.88,24.11,24.11,0,0,1,5.14-5.55,14.46,14.46,0,0,1,4.95-2.63,17.21,17.21,0,0,1,4.66-.82,26.28,26.28,0,0,1,6.56.64A12.32,12.32,0,0,1,209,41.82a21.65,21.65,0,0,1,3.87,3.41,14.09,14.09,0,0,1,2.38,4.09A16.47,16.47,0,0,1,216.29,55l-4.84-.08c-2.91-.07-5.83-.2-8.74-.39l-3.46-.18-4.66,0h-3.75l-.08,1a24.7,24.7,0,0,0,.56,4.88A15,15,0,0,0,193,64.7,12.09,12.09,0,0,0,195.82,68a10.52,10.52,0,0,0,3.45,2l2.5.82,4.48-.2a21.54,21.54,0,0,0,3.62-1.08,23.76,23.76,0,0,0,3.84-2.32l2.63,2a27.52,27.52,0,0,1-7.94,6.17,20.52,20.52,0,0,1-9.25,1.85,19.58,19.58,0,0,1-5.6-.62,16.8,16.8,0,0,1-5.23-2.36,19.34,19.34,0,0,1-4.11-4,15.67,15.67,0,0,1-2.54-4.91,19.18,19.18,0,0,1-1.08-5.27,34.59,34.59,0,0,1,.62-6.81Zm25.19-1.86a13.39,13.39,0,0,0-.94-4.65,6.84,6.84,0,0,0-2.85-3.4A7,7,0,0,0,199,42.13a7,7,0,0,0-5.26,2.54,11.1,11.1,0,0,0-2.63,6.94l9.87,0,2.67-.13,1.81-.14,1.16,0ZM223,64a11.13,11.13,0,0,1,1.9-.26l.91,0,.39.43,3.1,5a15.13,15.13,0,0,0,3.09,2.85,13.57,13.57,0,0,0,3.1,1.42,8.91,8.91,0,0,0,3.07.51,6.66,6.66,0,0,0,4.65-1.73,5.34,5.34,0,0,0,2.06-3.83,3.86,3.86,0,0,0-.72-2.32,8.75,8.75,0,0,0-2.93-2.06,47.9,47.9,0,0,0-5.48-1.54l-5-1.42a12,12,0,0,1-3.62-2.16,9.67,9.67,0,0,1-2.41-3.15,10.7,10.7,0,0,1-1-4.11,13.77,13.77,0,0,1,.95-5.39,11.8,11.8,0,0,1,2.71-3.71,10.86,10.86,0,0,1,3.75-2.2,15,15,0,0,1,5.43-1,39.17,39.17,0,0,1,7.25.56,19.48,19.48,0,0,1,5.26,1.69,42,42,0,0,1,.77,4.57l.48,4.27a1.77,1.77,0,0,1-.14.65,7.59,7.59,0,0,1-1.9.35c-.26,0-.69-.05-1.25-.09a20.11,20.11,0,0,1-1-1.81,15.29,15.29,0,0,0-4.27-5.42,8.56,8.56,0,0,0-5.14-1.6,7.58,7.58,0,0,0-5,1.73,4.33,4.33,0,0,0-1.47,3.45A4.09,4.09,0,0,0,232,50.63a10.73,10.73,0,0,0,5.26,2.29,43.52,43.52,0,0,1,8.37,2.49,12.63,12.63,0,0,1,5.48,4.32,10.46,10.46,0,0,1,1.59,5.7,10.78,10.78,0,0,1-3.83,8.41c-2.54,2.24-6.17,3.32-11,3.32-1.66-.08-3.31-.23-5-.43a32.05,32.05,0,0,1-4.27-.87c-1.08-.37-2.14-.79-3.18-1.25a2.28,2.28,0,0,1-.69-.62,32.77,32.77,0,0,1-.57-3.62L223.47,64Zm35.53-20.71a30,30,0,0,0,7.37-4.11c1.51-1.26,3.15-3.67,4.88-6.79h2.46a7.42,7.42,0,0,1,.39,2.38l0,3.54-.13,2.54,0,1,1,0,4.05-.17,3.24-.08a9.56,9.56,0,0,1,.29,2.06,9.62,9.62,0,0,1-.35,2.33,17.15,17.15,0,0,1-2.15.17,11.4,11.4,0,0,1-1.38-.08H276l-.78,0-2.06.08-.08,16.45.17,6a6,6,0,0,0,1,2.29,5.37,5.37,0,0,0,2.2.47,5.68,5.68,0,0,0,1.73-.21,7.71,7.71,0,0,0,1.9-1.25,9.39,9.39,0,0,1,.82-.62,9,9,0,0,1,1.73,1.64l.17.51a10.47,10.47,0,0,1-4.3,3.75,12.79,12.79,0,0,1-5.82,1.34A8.85,8.85,0,0,1,266.14,74c-1.69-1.68-2.5-4.36-2.5-7.94l.17-7.58V46.09l-1.33,0-3.15,0-.56-.14a1.21,1.21,0,0,1-.26-.71l.08-2.06Z"/></g></g></svg>