<svg xmlns="http://www.w3.org/2000/svg" viewBox="0 0 203.01 122.74"><g id="Layer_2" data-name="Layer 2"><g id="Layer_1-2" data-name="Layer 1"><path d="M47.9,32H86.19v3.05H51.41V58H84.12v3H51.41v25.2H86.59v3H47.9Zm41.72,0h4.07l18,25.2L130.14,32,155.2,0,114,59.86l21.22,29.46H131l-19.3-26.81L92.33,89.32H88.18l21.38-29.46L89.62,32Zm47.14,3.05V32H180.4v3.05H160.29V89.32h-3.51V35.06ZM0,32H4.39l60.49,90.73-25-33.42-36.21-53-.16,53H0ZM180,85.35a1.28,1.28,0,1,1,1.26-1.28A1.24,1.24,0,0,1,180,85.35ZM183.49,82h1.88a1.72,1.72,0,0,0,1.86,1.7c1.22,0,1.91-.73,1.91-2.11V72.84h1.92v8.75a3.54,3.54,0,0,1-3.81,3.91A3.45,3.45,0,0,1,183.49,82Zm10.07-.11h1.89c.16,1.17,1.31,1.92,3,1.92s2.66-.8,2.66-1.9c0-.94-.72-1.5-2.35-1.89l-1.59-.38c-2.22-.53-3.24-1.61-3.24-3.42,0-2.2,1.79-3.67,4.48-3.67,2.5,0,4.33,1.47,4.44,3.55H201a2.36,2.36,0,0,0-2.61-1.85c-1.51,0-2.51.72-2.51,1.84,0,.88.65,1.39,2.25,1.76l1.36.34c2.52.59,3.57,1.62,3.57,3.47,0,2.37-1.83,3.85-4.75,3.85-2.73,0-4.57-1.41-4.7-3.62Z"/></g></g></svg>