<svg xmlns="http://www.w3.org/2000/svg" xmlns:xlink="http://www.w3.org/1999/xlink" viewBox="0 0 200.41 122.74"><defs><style>.cls-1,.cls-5{fill:url(#linear-gradient);}.cls-1{clip-rule:evenodd;}.cls-2,.cls-4{fill:#679e63;}.cls-3{fill:#333;}.cls-3,.cls-4,.cls-5{fill-rule:evenodd;}.cls-6{clip-path:url(#clip-path);}.cls-7{fill:none;}.cls-8{fill:url(#linear-gradient-3);}.cls-9{fill:url(#linear-gradient-4);}.cls-10{fill:url(#linear-gradient-5);}.cls-11{fill:url(#linear-gradient-6);}.cls-12{fill:url(#linear-gradient-7);}.cls-13{fill:url(#linear-gradient-8);}</style><linearGradient id="linear-gradient" x1="81.72" y1="36.56" x2="64.48" y2="71.74" gradientUnits="userSpaceOnUse"><stop offset="0" stop-color="#3f873f"/><stop offset="0.33" stop-color="#3f8b3d"/><stop offset="0.64" stop-color="#3e9637"/><stop offset="0.93" stop-color="#3da92e"/><stop offset="1" stop-color="#3dae2b"/></linearGradient><clipPath id="clip-path"><path class="cls-1" d="M75.12,28.36a2.27,2.27,0,0,0-2.31,0l-19.08,11a2.29,2.29,0,0,0-1.16,2v22a2.29,2.29,0,0,0,1.16,2l19.08,11a2.32,2.32,0,0,0,2.31,0l19.08-11a2.29,2.29,0,0,0,1.16-2v-22a2.29,2.29,0,0,0-1.16-2Z"/></clipPath><linearGradient id="linear-gradient-3" x1="71.06" y1="54.97" x2="119.45" y2="19.22" gradientUnits="userSpaceOnUse"><stop offset="0.14" stop-color="#3f873f"/><stop offset="0.4" stop-color="#529f44"/><stop offset="0.71" stop-color="#63b649"/><stop offset="0.91" stop-color="#6abf4b"/></linearGradient><linearGradient id="linear-gradient-4" x1="51.9" y1="24.38" x2="96.03" y2="24.38" gradientUnits="userSpaceOnUse"><stop offset="0.09" stop-color="#6abf4b"/><stop offset="0.29" stop-color="#63b649"/><stop offset="0.6" stop-color="#529f44"/><stop offset="0.86" stop-color="#3f873f"/></linearGradient><linearGradient id="linear-gradient-5" x1="51.9" y1="52.39" x2="96.03" y2="52.39" xlink:href="#linear-gradient-4"/><linearGradient id="linear-gradient-6" x1="51.9" y1="64.99" x2="96.03" y2="64.99" xlink:href="#linear-gradient-4"/><linearGradient id="linear-gradient-7" x1="51.9" y1="70.68" x2="96.03" y2="70.68" xlink:href="#linear-gradient-4"/><linearGradient id="linear-gradient-8" x1="102.46" y1="35.52" x2="75.24" y2="91.04" xlink:href="#linear-gradient"/></defs><g id="Layer_2" data-name="Layer 2"><g id="Layer_1-2" data-name="Layer 1"><path class="cls-2" d="M99.05,122.74a3.7,3.7,0,0,1-1.89-.51l-6-3.57c-.9-.51-.46-.69-.16-.79a12.11,12.11,0,0,0,2.73-1.25.48.48,0,0,1,.45,0l4.64,2.76a.61.61,0,0,0,.56,0L117.43,109a.58.58,0,0,0,.28-.49V87.59a.61.61,0,0,0-.28-.5L99.34,76.66a.56.56,0,0,0-.56,0L80.69,87.1a.59.59,0,0,0-.28.49v20.89a.55.55,0,0,0,.28.48l5,2.87c2.69,1.34,4.34-.24,4.34-1.83V89.38a.52.52,0,0,1,.52-.53h2.3a.53.53,0,0,1,.52.53V110c0,3.59-2,5.65-5.36,5.65a7.72,7.72,0,0,1-4.17-1.14l-4.74-2.73a3.83,3.83,0,0,1-1.9-3.3V87.59a3.84,3.84,0,0,1,1.9-3.3l18.1-10.45a4,4,0,0,1,3.8,0l18.1,10.45a3.84,3.84,0,0,1,1.9,3.3v20.89a3.83,3.83,0,0,1-1.9,3.3L101,122.23A3.77,3.77,0,0,1,99.05,122.74Z"/><path class="cls-2" d="M104.64,108.35c-7.92,0-9.57-3.64-9.57-6.69a.52.52,0,0,1,.52-.52h2.34a.53.53,0,0,1,.52.45c.35,2.38,1.4,3.58,6.19,3.58,3.82,0,5.44-.86,5.44-2.88,0-1.17-.46-2-6.39-2.62-5-.49-8-1.58-8-5.54,0-3.65,3.08-5.83,8.24-5.83,5.8,0,8.67,2,9,6.33a.53.53,0,0,1-.14.4.56.56,0,0,1-.38.17h-2.35a.53.53,0,0,1-.51-.41c-.56-2.51-1.93-3.31-5.65-3.31-4.16,0-4.65,1.45-4.65,2.54,0,1.31.57,1.7,6.19,2.44s8.21,1.78,8.21,5.69S110.38,108.35,104.64,108.35Z"/><path class="cls-2" d="M130.74,86.44A3.49,3.49,0,1,1,127.25,83,3.5,3.5,0,0,1,130.74,86.44Zm-6.41,0a2.93,2.93,0,1,0,2.91-2.91A2.93,2.93,0,0,0,124.33,86.43Zm1.61-1.94h1.35c.46,0,1.37,0,1.37,1a.9.9,0,0,1-.74,1c.53,0,.57.39.64.89a3.89,3.89,0,0,0,.21,1h-.83c0-.18-.15-1.18-.15-1.24-.06-.22-.13-.33-.41-.33h-.68V88.4h-.76Zm.74,1.71h.61a.52.52,0,0,0,.59-.55c0-.53-.37-.53-.57-.53h-.63Z"/><path class="cls-3" d="M43,41a2.31,2.31,0,0,0-1.16-2L22.66,28a2.21,2.21,0,0,0-1.05-.31h-.2a2.24,2.24,0,0,0-1.06.31L1.16,39A2.31,2.31,0,0,0,0,41L0,70.76a1.16,1.16,0,0,0,.58,1,1.13,1.13,0,0,0,1.15,0l11.41-6.53a2.35,2.35,0,0,0,1.16-2V49.33a2.3,2.3,0,0,1,1.15-2l4.86-2.8a2.29,2.29,0,0,1,1.16-.31,2.23,2.23,0,0,1,1.15.31l4.86,2.8a2.31,2.31,0,0,1,1.16,2V63.22a2.35,2.35,0,0,0,1.16,2l11.4,6.53a1.15,1.15,0,0,0,1.16,0,1.17,1.17,0,0,0,.57-1Z"/><path class="cls-3" d="M135.34.15a1.16,1.16,0,0,0-1.73,1V30.61a.81.81,0,0,1-.4.7.83.83,0,0,1-.81,0l-4.81-2.77a2.34,2.34,0,0,0-2.32,0L106.08,39.62a2.31,2.31,0,0,0-1.16,2V63.79a2.31,2.31,0,0,0,1.16,2l19.19,11.09a2.34,2.34,0,0,0,2.32,0l19.2-11.09a2.31,2.31,0,0,0,1.16-2V8.55a2.34,2.34,0,0,0-1.19-2ZM133.55,56.5a.6.6,0,0,1-.29.51l-6.59,3.8a.58.58,0,0,1-.57,0L119.51,57a.6.6,0,0,1-.29-.51V48.89a.61.61,0,0,1,.28-.5l6.6-3.8a.55.55,0,0,1,.58,0l6.59,3.8a.61.61,0,0,1,.28.5Z"/><path class="cls-3" d="M199.25,48.7a2.32,2.32,0,0,0,1.16-2V41.32a2.31,2.31,0,0,0-1.16-2L180.18,28.24a2.32,2.32,0,0,0-2.32,0L158.67,39.32a2.31,2.31,0,0,0-1.16,2V63.48a2.32,2.32,0,0,0,1.17,2l19.07,10.87a2.32,2.32,0,0,0,2.27,0L191.56,70a1.16,1.16,0,0,0,0-2L172.26,56.86a1.16,1.16,0,0,1-.58-1V48.91a1.15,1.15,0,0,1,.58-1l6-3.47a1.2,1.2,0,0,1,1.16,0l6,3.47a1.15,1.15,0,0,1,.58,1v5.46a1.16,1.16,0,0,0,1.74,1Z"/><path class="cls-4" d="M178.74,47.66a.43.43,0,0,1,.44,0l3.69,2.12a.47.47,0,0,1,.22.39v4.25a.47.47,0,0,1-.22.39l-3.69,2.12a.43.43,0,0,1-.44,0l-3.68-2.12a.45.45,0,0,1-.23-.39V50.17a.45.45,0,0,1,.23-.39Z"/><path class="cls-5" d="M75.12,28.36a2.27,2.27,0,0,0-2.31,0l-19.08,11a2.29,2.29,0,0,0-1.16,2v22a2.29,2.29,0,0,0,1.16,2l19.08,11a2.32,2.32,0,0,0,2.31,0l19.08-11a2.29,2.29,0,0,0,1.16-2v-22a2.29,2.29,0,0,0-1.16-2Z"/><g class="cls-6"><path class="cls-7" d="M72.77,28.36l-19.12,11a2.37,2.37,0,0,0-1.24,2v22a2.25,2.25,0,0,0,.6,1.47L74.5,28.12A2.29,2.29,0,0,0,72.77,28.36Z"/><path class="cls-7" d="M74.61,76.66a2.7,2.7,0,0,0,.53-.22l19.11-11a2.35,2.35,0,0,0,1.2-2v-22a2.25,2.25,0,0,0-.7-1.6Z"/><path class="cls-8" d="M94.24,39.37l-19.14-11a2.22,2.22,0,0,0-.6-.24L53,64.88a2.51,2.51,0,0,0,.64.53l19.18,11a2.35,2.35,0,0,0,1.78.22L94.75,39.77A2.2,2.2,0,0,0,94.24,39.37Z"/><path class="cls-7" d="M95.45,63.41v-22a2.36,2.36,0,0,0-1.21-2l-19.14-11a2.28,2.28,0,0,0-.7-.26l21,35.84A2.26,2.26,0,0,0,95.45,63.41Z"/><path class="cls-7" d="M53.65,39.37a2.37,2.37,0,0,0-1.24,2v22a2.39,2.39,0,0,0,1.24,2l19.18,11a2.3,2.3,0,0,0,1.47.28L53.76,39.3Z"/><polygon class="cls-9" points="72.18 24.31 71.92 24.46 72.27 24.46 72.18 24.31"/><path class="cls-10" d="M94.25,65.41a2.41,2.41,0,0,0,1.13-1.47L74.4,28.1a2.33,2.33,0,0,0-1.63.26l-19,10.94L74.3,76.72a2.32,2.32,0,0,0,.84-.28Z"/><polygon class="cls-11" points="96.03 65.06 95.9 64.84 95.9 65.13 96.03 65.06"/><path class="cls-12" d="M94.25,65.41l-19.11,11a2.32,2.32,0,0,1-.84.28l.38.69L95.9,65.13v-.29l-.52-.9A2.41,2.41,0,0,1,94.25,65.41Z"/><path class="cls-13" d="M94.25,65.41l-19.11,11a2.32,2.32,0,0,1-.84.28l.38.69L95.9,65.13v-.29l-.52-.9A2.41,2.41,0,0,1,94.25,65.41Z"/></g></g></g></svg>