<svg xmlns="http://www.w3.org/2000/svg" viewBox="0 0 126.14 122.99"><defs><style>.cls-1{fill:#001e36;}.cls-2{fill:#31a8ff;}</style></defs><g id="Layer_2" data-name="Layer 2"><g id="Layer_1-2" data-name="Layer 1"><g id="Layer_2-2" data-name="Layer 2"><g id="Surfaces"><g id="Photo_Surface" data-name="Photo Surface"><g id="Outline_no_shadow" data-name="Outline no shadow"><path class="cls-1" d="M22.34,0h81.47a22.32,22.32,0,0,1,22.33,22.34v78.31A22.32,22.32,0,0,1,103.81,123H22.34A22.32,22.32,0,0,1,0,100.65V22.34A22.32,22.32,0,0,1,22.34,0Z"/></g></g></g><g id="Outlined_Mnemonics_Logos" data-name="Outlined Mnemonics Logos"><g id="Ps"><path class="cls-2" d="M28.38,86.25V32.17c0-.37.16-.58.53-.58.89,0,1.73,0,2.94-.05s2.58-.06,4-.11,2.94-.05,4.57-.1,3.2-.06,4.78-.06A31,31,0,0,1,56,32.9a18.91,18.91,0,0,1,7,4.31,16.73,16.73,0,0,1,3.84,6A20.11,20.11,0,0,1,68.12,50,18.72,18.72,0,0,1,65,61.23a17.92,17.92,0,0,1-8.46,6.41,33.87,33.87,0,0,1-11.82,1.79c-1.27,0-2.11,0-2.63-.05s-1.26,0-2.26,0V86.2a.65.65,0,0,1-.58.73H29C28.59,86.93,28.38,86.72,28.38,86.25ZM39.84,41.73V59.39c.74.06,1.42.11,2,.11h2.79a19.61,19.61,0,0,0,6-1A9.06,9.06,0,0,0,55,55.77a8.18,8.18,0,0,0,1.63-5.42,8.69,8.69,0,0,0-1.21-4.68,7.62,7.62,0,0,0-3.68-3,15.26,15.26,0,0,0-6.2-1c-1.37,0-2.58,0-3.57,0a12.68,12.68,0,0,0-2.16,0Z"/><path class="cls-2" d="M100.91,56.19a18.56,18.56,0,0,0-5-1.79A27.78,27.78,0,0,0,90,53.72a10.41,10.41,0,0,0-3.15.36,2.72,2.72,0,0,0-1.63,1.06,2.79,2.79,0,0,0-.42,1.41,2.36,2.36,0,0,0,.52,1.37,6.08,6.08,0,0,0,1.79,1.42c1.21.63,2.47,1.21,3.73,1.73a38.28,38.28,0,0,1,8.1,3.84,12.38,12.38,0,0,1,4.15,4.36,11.44,11.44,0,0,1,1.21,5.42,12.22,12.22,0,0,1-2,7,13.19,13.19,0,0,1-5.89,4.68A24.13,24.13,0,0,1,86.83,88a35.73,35.73,0,0,1-7.15-.69,20.88,20.88,0,0,1-5.36-1.68,1,1,0,0,1-.58-1V75.53a.55.55,0,0,1,.21-.47.38.38,0,0,1,.47,0,22.34,22.34,0,0,0,6.52,2.57,24.29,24.29,0,0,0,6.2.79,10.13,10.13,0,0,0,4.37-.73,2.46,2.46,0,0,0,1.42-2.21,2.76,2.76,0,0,0-1.27-2.1A21.54,21.54,0,0,0,86.51,71a32.14,32.14,0,0,1-7.46-3.79,13.41,13.41,0,0,1-4-4.47,11.08,11.08,0,0,1-1.21-5.36A12.43,12.43,0,0,1,75.63,51a13,13,0,0,1,5.52-4.83,20.41,20.41,0,0,1,9.31-1.84,46,46,0,0,1,6.51.47A18.37,18.37,0,0,1,101.49,46a.93.93,0,0,1,.53.47,2.76,2.76,0,0,1,.1.63v8.57a.65.65,0,0,1-.26.53A1.49,1.49,0,0,1,100.91,56.19Z"/></g></g></g></g></g></svg>