<svg xmlns="http://www.w3.org/2000/svg" viewBox="0 0 282.82 95.38"><defs><style>.cls-1,.cls-2{fill:#00d8ff;}.cls-2{fill-rule:evenodd;}</style></defs><g id="Layer_2" data-name="Layer 2"><g id="Layer_1-2" data-name="Layer 1"><circle class="cls-1" cx="53.59" cy="47.6" r="9.57"/><path class="cls-1" d="M53.59,69.54C40.15,69.54,28.4,68,19.6,65,7.51,60.82,0,54.17,0,47.6,0,41.27,7,35.07,18.6,31c9.54-3.32,22-5.16,35-5.16,12.78,0,25,1.8,34.53,5.07C100.06,35,107.18,41.26,107.18,47.6c0,6.58-7.77,13.24-20.28,17.38C78,67.92,66.2,69.54,53.59,69.54Zm0-39.11c-12.34,0-24.55,1.79-33.49,4.91C9.38,39.08,4.58,44.19,4.58,47.6s5.16,9.14,16.5,13C29.4,63.46,40.65,65,53.59,65,65.72,65,77,63.43,85.46,60.64c11.78-3.9,17.14-9.5,17.14-13,0-3.3-5-8.57-16-12.35C77.61,32.14,65.87,30.43,53.59,30.43Z"/><path class="cls-1" d="M31.89,95.34a10.06,10.06,0,0,1-5.15-1.27c-5.48-3.16-7.38-12.28-5.08-24.39,1.88-9.93,6.5-21.61,13-32.9h0C41.05,25.72,48.74,16,56.31,9.4c9.52-8.28,18.48-11.34,24-8.17,5.7,3.28,7.59,13.34,4.93,26.25-1.89,9.14-6.39,20.2-12.7,31.13-6.71,11.65-14,21-21,27.15S37.38,95.34,31.89,95.34Zm6.75-56.27C32.47,49.76,27.92,61.23,26.15,70.53,24,81.69,26.07,88.4,29,90.11s10.5.09,19.52-7.8c6.62-5.78,13.54-14.77,20-26,6.06-10.51,10.39-21.09,12.17-29.76C83.23,14.4,81.06,7,78,5.19c-2.86-1.64-9.92,0-18.67,7.66-7.21,6.27-14.55,15.58-20.69,26.22Z"/><path class="cls-1" d="M75.32,95.38c-5.19,0-11.78-3.14-18.63-9-7.66-6.59-15.48-16.43-22-27.7-6.4-11-11-22.57-12.92-32.42-2.42-12.39-.6-21.68,4.89-24.85,5.69-3.3,15.35.09,25.2,8.84,7,6.2,14.32,15.62,20.64,26.54,6.73,11.64,11.24,22.6,13,31.72C88,81,86,90.83,80.36,94.12A9.88,9.88,0,0,1,75.32,95.38ZM31.68,4.71A5.49,5.49,0,0,0,29,5.33C26.1,7,24,14,26.26,25.34c1.84,9.37,6.24,20.38,12.39,31s13.85,20.35,21,26.52c8.61,7.41,15.44,9,18.39,7.29s5.32-9,3-20.8c-1.71-8.63-6-19.11-12.53-30.31C62.45,28.54,55.45,19.51,48.82,13.63,41.64,7.25,35.51,4.71,31.68,4.71Z"/><path class="cls-2" d="M159.83,72.05,148.1,54.33c5.93-.52,11.27-4.82,11.27-12.67s-5.67-13.09-13.62-13.09H128.29V72h5.41V54.75h8.67L153.44,72ZM145.1,50H133.7V33.42h11.4c5.15,0,8.67,3.39,8.67,8.27S150.25,50,145.1,50ZM180,72.83A17.08,17.08,0,0,0,192.47,68l-2.34-3.19a13.77,13.77,0,0,1-9.71,4c-6.78,0-10.95-5-11.34-10.87h25.47V56.68c0-9.45-5.6-16.88-15.11-16.88-9,0-15.51,7.37-15.51,16.49,0,9.84,6.71,16.52,16,16.52Zm9.78-18.5H169.08c.27-4.82,3.58-10.49,10.3-10.49C186.55,43.84,189.67,49.64,189.74,54.33ZM227,72.05V50.42c0-7.62-5.54-10.62-12.19-10.62A16.45,16.45,0,0,0,202.25,45l2.28,3.39A12.5,12.5,0,0,1,214.17,44c4.56,0,8,2.41,8,6.65v5.67c-2.54-2.94-6.12-4.3-10.42-4.3-5.34,0-11,3.32-11,10.35,0,6.85,5.67,10.43,11,10.43a13.62,13.62,0,0,0,10.42-4.36v3.58Zm-13.55-2.74c-4.56,0-7.76-2.86-7.76-6.84s3.2-6.9,7.76-6.9a10.52,10.52,0,0,1,8.66,3.91v5.93a10.55,10.55,0,0,1-8.66,3.91Zm37.17,3.52c5.74,0,9.12-2.34,11.54-5.47l-3.26-3a9.49,9.49,0,0,1-8,4.1c-6.71,0-10.88-5.21-10.88-12.18s4.17-12.12,10.88-12.12a9.27,9.27,0,0,1,8,4.1l3.26-3c-2.41-3.13-5.8-5.47-11.54-5.47-9.38,0-15.7,7.16-15.7,16.48s6.32,16.52,15.7,16.52Zm26.33,0a8,8,0,0,0,5.86-2l-1.43-3.64a4.69,4.69,0,0,1-3.32,1.3c-2.15,0-3.2-1.7-3.2-4V44.88h6.39v-4.3h-6.39V32H270v8.6h-5.22v4.31H270V65.48c0,4.69,2.34,7.36,7,7.36Z"/></g></g></svg>