<svg xmlns="http://www.w3.org/2000/svg" viewBox="0 0 281.77 80.47"><defs><style>.cls-1{fill:#8db849;}.cls-2{fill:#5a863e;}.cls-3{fill:#fffffe;}.cls-4{fill:#1a1919;}</style></defs><g id="Layer_2" data-name="Layer 2"><g id="Laag_1" data-name="Laag 1"><path class="cls-1" d="M31.9,2.55c.57,0,.85.28,1.42.56-3.39,1.41-6.78,5.08-8.47,13l-6.22,1.69C20.61,12.15,24.56,2.55,31.9,2.55ZM35,5.37a19.79,19.79,0,0,1,1.13,6.78v.56L28,15C29.65,9,32.47,6.5,35,5.37Zm7.34,5.08-3.67,1.13v-.85a19.27,19.27,0,0,0-.85-6.21C39.81,5.09,41.5,7.63,42.35,10.45ZM60.7,15a.61.61,0,0,0-.56-.57c-.57,0-6.5-.56-6.5-.56s-4.23-4.24-4.8-4.52C48.28,8.76,47.43,9,47.15,9c0,0-.85.28-2.26.85-1.41-4-4-7.63-8.19-7.63h-.28A5,5,0,0,0,32.19,0C22-.28,17.22,12.43,15.53,18.92c-2.26.57-4.52,1.41-7.06,2.26C6.21,21.74,6.21,22,5.93,24,5.65,25.41,0,70,0,70l44.89,8.47,24.28-5.36S60.7,15.53,60.7,15Z"/><path class="cls-2" d="M59.86,14.4c-.29,0-6.22-.56-6.22-.56s-4.23-4.24-4.8-4.52C48.56,9,48.56,9,48.28,9L44.89,78.49l24.28-5.36S60.7,15.53,60.7,15c0-.28-.56-.57-.84-.57"/><path class="cls-3" d="M36.7,28l-3.1,9a13.4,13.4,0,0,0-5.93-1.41c-4.8,0-5.08,2.82-5.08,3.67,0,4,10.73,5.65,10.73,15.25,0,7.62-4.8,12.42-11.3,12.42a15.5,15.5,0,0,1-11.57-4.8l2-6.78s4,3.39,7.34,3.39a3,3,0,0,0,3.11-3.11c0-5.36-8.75-5.64-8.75-14.39,0-7.34,5.36-14.4,15.81-14.4C34.73,26.54,36.7,28,36.7,28"/><path class="cls-4" d="M97.69,44.61c-2.54-1.41-3.67-2.54-3.67-4,0-2,1.69-3.1,4.52-3.1A15,15,0,0,1,104.46,39l2.26-6.78s-2-1.69-7.9-1.69c-8.47,0-14.12,4.8-14.12,11.57,0,4,2.82,6.78,6.21,8.76,2.83,1.69,4,2.82,4,4.51s-1.42,3.39-4.24,3.39a20.47,20.47,0,0,1-7.91-2l-2.25,6.78a17.81,17.81,0,0,0,9.31,2.26c8.47,0,14.68-4.24,14.68-11.86,0-4.23-3.1-7.34-6.77-9.32m34.16-14.4a12.83,12.83,0,0,0-10.16,5.09h0l3.67-19.2h-9.6l-9.32,48.84H116l3.11-16.66c1.13-6.21,4.51-10.16,7.62-10.16,2.26,0,3.1,1.41,3.1,3.67a21.64,21.64,0,0,1-.28,4.24l-3.67,19.19h9.6l3.67-19.76a51.35,51.35,0,0,0,.57-6.21c0-5.65-2.83-9-7.91-9m24.56,28c-3.38,0-4.51-2.83-4.51-6.22,0-5.36,2.82-14.39,7.9-14.39,3.39,0,4.52,2.82,4.52,5.64C164.32,49.41,161.5,58.17,156.41,58.17Zm4.8-28c-11.57,0-19.19,10.45-19.19,22,0,7.34,4.51,13.27,13.27,13.27,11.29,0,18.91-10.17,18.91-22C174.2,36.71,170.25,30.21,161.21,30.21Zm28.24,28.24A5.84,5.84,0,0,1,185.5,57l1.69-9c1.13-5.93,4.23-9.88,7.62-9.88,2.83,0,4,2.82,4,5.36C198.48,49.7,194.81,58.45,189.45,58.45Zm9.32-28.24c-6.5,0-10.17,5.65-10.17,5.65h0l.57-5.08H180.7a117.83,117.83,0,0,1-2,12.7l-6.78,35h9.6l2.54-14.11h.29A12.14,12.14,0,0,0,190,65.51c11.3,0,18.64-11.58,18.64-23.15C208.65,36.14,205.82,30.21,198.77,30.21ZM222.2,16.66a5.43,5.43,0,0,0-5.37,5.65c0,2.82,1.7,4.8,4.52,4.8h0A5.33,5.33,0,0,0,227,21.46a4.6,4.6,0,0,0-4.8-4.8M208.93,64.94h9.6L225,31.06h-9.6ZM249.3,31.06h-6.77l.28-1.69c.56-3.39,2.54-6.21,5.65-6.21a9.36,9.36,0,0,1,3.1.56l2-7.62a12.29,12.29,0,0,0-5.08-.85,13.79,13.79,0,0,0-9.32,3.11c-3.39,2.82-4.8,6.77-5.65,10.73l-.28,1.69h-4.52l-1.41,7.34h4.52l-5.08,26.82h9.6l5.08-26.82h6.49Zm22.87,0s-5.93,15-8.75,23.15h0c-.28-2.54-2.26-23.15-2.26-23.15H251l5.64,31.06a3.59,3.59,0,0,1-.28,1.69,16.26,16.26,0,0,1-5.08,5.65,19.66,19.66,0,0,1-5.36,2.82l2.54,8.19c2-.28,5.93-2,9.31-5.08,4.24-4,8.47-10.45,12.43-18.92l11.57-25.13Z"/></g></g></svg>