<svg xmlns="http://www.w3.org/2000/svg" viewBox="0 0 205.77 122.49"><defs><style>.cls-1{fill:#9b5c8f;}.cls-2{fill:#fff;}</style></defs><g id="Layer_2" data-name="Layer 2"><g id="Layer_1-2" data-name="Layer 1"><path class="cls-1" d="M19.1,0H186.59a19.17,19.17,0,0,1,19.18,19.18V83.12a19.17,19.17,0,0,1-19.18,19.18H126.53l8.24,20.19L98.51,102.3H19.18A19.17,19.17,0,0,1,0,83.12V19.18A19.1,19.1,0,0,1,19.1,0Z"/><path class="cls-2" d="M11.72,17.48A6.74,6.74,0,0,1,17,14.89q6.39-.51,7.27,6,3.9,26.22,8.45,44.42L51,30.45c1.67-3.18,3.77-4.85,6.28-5,3.68-.25,5.93,2.09,6.85,7a156.75,156.75,0,0,0,8,28.61q3.27-31.86,11-46a6.41,6.41,0,0,1,5.52-3.68,7.22,7.22,0,0,1,5.27,1.67,6.55,6.55,0,0,1,2.6,4.77,7.27,7.27,0,0,1-.84,4c-3.26,6-5.94,16.15-8.11,30.2C85.5,65.66,84.74,76.29,85.24,83.9a9.87,9.87,0,0,1-1,5.52,5.39,5.39,0,0,1-4.43,3c-2.18.17-4.44-.84-6.61-3.09Q61.53,77.41,54.71,53.7q-8.15,16.06-12,24.09C37.73,87.24,33.55,92.1,30,92.35c-2.26.16-4.19-1.76-5.86-5.77q-6.39-16.44-13.8-63.49a7.12,7.12,0,0,1,1.34-5.61ZM191.48,30.62a19.31,19.31,0,0,0-13.39-9.71,22.23,22.23,0,0,0-4.51-.5c-8,0-14.56,4.18-19.66,12.55a44.32,44.32,0,0,0-6.53,23.59,32.35,32.35,0,0,0,4,16.56,19.23,19.23,0,0,0,13.38,9.7,21.63,21.63,0,0,0,4.52.5c8.11,0,14.64-4.18,19.66-12.54a44.85,44.85,0,0,0,6.52-23.68,30.92,30.92,0,0,0-4-16.47ZM180.94,53.79c-1.17,5.52-3.27,9.61-6.36,12.37-2.43,2.18-4.69,3.1-6.78,2.68s-3.68-2.17-4.93-5.44a21.07,21.07,0,0,1-1.51-7.61,28.89,28.89,0,0,1,.59-6.1,27,27,0,0,1,4.43-10c2.76-4.1,5.69-5.77,8.7-5.18,2,.41,3.68,2.17,4.94,5.43a21.35,21.35,0,0,1,1.5,7.62,29.82,29.82,0,0,1-.58,6.18ZM139.11,30.62a19.46,19.46,0,0,0-13.38-9.71,22.32,22.32,0,0,0-4.52-.5c-8,0-14.55,4.18-19.66,12.55A44.4,44.4,0,0,0,95,56.55a32.35,32.35,0,0,0,4,16.56,19.23,19.23,0,0,0,13.38,9.7,21.56,21.56,0,0,0,4.52.5c8.11,0,14.63-4.18,19.65-12.54a44.86,44.86,0,0,0,6.53-23.68c0-6.52-1.34-12-4-16.47ZM128.49,53.79c-1.17,5.52-3.26,9.61-6.36,12.37-2.42,2.18-4.68,3.1-6.77,2.68s-3.68-2.17-4.94-5.44a21.26,21.26,0,0,1-1.5-7.61,28.9,28.9,0,0,1,.58-6.1,27,27,0,0,1,4.44-10c2.76-4.1,5.68-5.77,8.69-5.18,2,.41,3.69,2.17,4.94,5.43a21.35,21.35,0,0,1,1.5,7.62,24.27,24.27,0,0,1-.58,6.18Z"/></g></g></svg>