<svg xmlns="http://www.w3.org/2000/svg" viewBox="0 0 282.97 57.71"><defs><style>.cls-1{fill:#32373c;}</style></defs><g id="Layer_2" data-name="Layer 2"><g id="WordPress"><g id="Logotype"><g id="Wordmark"><path class="cls-1" d="M160.87,21.42H149.39v1.21c3.59,0,4.17.77,4.17,5.33v8.2c0,4.56-.58,5.39-4.17,5.39-2.75-.39-4.61-1.86-7.18-4.68l-3-3.21c4-.7,6.09-3.2,6.09-6,0-3.53-3-6.22-8.65-6.22H125.41v1.21c3.59,0,4.17.77,4.17,5.33v8.2c0,4.56-.58,5.39-4.17,5.39v1.22h12.76V41.55c-3.59,0-4.16-.83-4.16-5.39v-2.3h1.09l7.11,8.91h18.66C170,42.77,174,37.89,174,32.06S170,21.42,160.87,21.42ZM134,31.87V23.34h2.62c2.89,0,4.17,2,4.17,4.3a3.91,3.91,0,0,1-4.17,4.23Zm27.05,8.91h-.45c-2.3,0-2.62-.58-2.62-3.53V23.34h3.07c6.67,0,7.89,4.87,7.89,8.66S167.73,40.78,161.06,40.78Z"/><path class="cls-1" d="M89.7,34.24l4.43-13.08c1.28-3.78.7-4.87-3.4-4.87V15h12v1.29c-4,0-5,1-6.6,5.64L88.87,43.86H88L81.49,23.79,74.83,43.86H74L66.88,21.93c-1.54-4.68-2.57-5.64-6.29-5.64V15H74.83v1.29c-3.79,0-4.81.89-3.47,4.87l4.3,13.08L82.14,15h1.21Z"/><path class="cls-1" d="M111.5,43.6c-7,0-12.82-5.19-12.82-11.54s5.77-11.48,12.82-11.48,12.82,5.2,12.82,11.48S118.55,43.6,111.5,43.6Zm0-21c-5.9,0-8,5.32-8,9.49s2,9.49,8,9.49,8-5.26,8-9.49S117.46,22.57,111.5,22.57Z"/><path class="cls-1" d="M189.85,41.48v1.29H175.17V41.48c4.29,0,5.06-1.08,5.06-7.5V23.72c0-6.41-.77-7.43-5.06-7.43V15h13.27c6.6,0,10.26,3.4,10.26,8s-3.66,7.88-10.26,7.88h-3.65V34C184.79,40.4,185.55,41.48,189.85,41.48Zm-1.41-24.17h-3.65V28.47h3.65c3.59,0,5.26-2.5,5.26-5.51S192,17.31,188.44,17.31Z"/><path class="cls-1" d="M242.75,36.74l-.32,1.15c-.58,2.12-1.29,2.89-5.84,2.89h-.9c-3.33,0-3.91-.77-3.91-5.32v-3c5,0,5.39.45,5.39,3.78h1.22V26.74h-1.22c0,3.33-.39,3.78-5.39,3.78V23.34h3.53c4.55,0,5.26.77,5.83,2.88l.32,1.22h1l-.45-6H223.19v1.21c3.59,0,4.17.77,4.17,5.33v8.2c0,4.17-.49,5.22-3.32,5.37-2.69-.41-4.54-1.88-7.07-4.66L214,33.66c4-.7,6.09-3.2,6.09-6,0-3.53-3-6.22-8.65-6.22H200.17v1.21c3.59,0,4.17.77,4.17,5.33v8.2c0,4.56-.58,5.39-4.17,5.39v1.22h12.76V41.55c-3.59,0-4.16-.83-4.16-5.39v-2.3h1.09L217,42.77h26.35l.39-6Zm-34-4.87V23.34h2.62c2.89,0,4.17,2,4.17,4.3a3.91,3.91,0,0,1-4.17,4.23Z"/><path class="cls-1" d="M255.76,43.6A9.51,9.51,0,0,1,250,41.42a4.52,4.52,0,0,0-1,2.18h-1.22V34.75H249c.51,4.23,3.46,6.73,7.25,6.73,2.05,0,3.71-1.15,3.71-3.07,0-1.67-1.47-2.95-4.1-4.17l-3.65-1.73c-2.57-1.22-4.49-3.34-4.49-6.16,0-3.07,2.88-5.7,6.86-5.7a8.08,8.08,0,0,1,5,1.66,3.56,3.56,0,0,0,.83-1.73h1.22v7.57h-1.35c-.44-3-2.11-5.52-5.51-5.52-1.79,0-3.46,1-3.46,2.63s1.34,2.57,4.42,4L259.29,31c3.08,1.47,4.29,3.85,4.29,5.77C263.58,40.78,260.06,43.6,255.76,43.6Z"/><path class="cls-1" d="M275.15,43.6a9.48,9.48,0,0,1-5.77-2.18,4.61,4.61,0,0,0-1,2.18h-1.22V34.75h1.29c.51,4.23,3.46,6.73,7.24,6.73,2,0,3.72-1.15,3.72-3.07,0-1.67-1.47-2.95-4.1-4.17l-3.66-1.73c-2.56-1.22-4.49-3.34-4.49-6.16,0-3.07,2.89-5.7,6.87-5.7a8.08,8.08,0,0,1,5,1.66,3.56,3.56,0,0,0,.83-1.73h1.22v7.57H279.7c-.45-3-2.11-5.52-5.51-5.52-1.8,0-3.46,1-3.46,2.63s1.34,2.57,4.42,4L278.68,31c3.07,1.47,4.29,3.85,4.29,5.77C283,40.78,279.44,43.6,275.15,43.6Z"/></g><g id="W_Mark" data-name="W Mark"><path class="cls-1" d="M28.85,1.73A27,27,0,0,1,44,6.36a27.62,27.62,0,0,1,4,3.32,27.08,27.08,0,0,1,5.81,8.62,27.1,27.1,0,0,1,0,21.11A26.35,26.35,0,0,1,51.34,44,27.31,27.31,0,0,1,44,51.34a26.35,26.35,0,0,1-4.61,2.5,27.1,27.1,0,0,1-21.11,0A27.08,27.08,0,0,1,9.68,48a27.62,27.62,0,0,1-3.32-4,27.1,27.1,0,0,1,0-30.33,27.77,27.77,0,0,1,7.33-7.33A27,27,0,0,1,28.85,1.73m0-1.73A28.86,28.86,0,1,0,57.71,28.85,28.85,28.85,0,0,0,28.85,0Z"/><path class="cls-1" d="M4.81,28.85A24,24,0,0,0,18.36,50.49L6.89,19.07A24,24,0,0,0,4.81,28.85Zm40.28-1.21a12.61,12.61,0,0,0-2-6.63c-1.22-2-2.36-3.66-2.36-5.64a4.17,4.17,0,0,1,4-4.27l.31,0A24,24,0,0,0,8.76,15.65l1.55,0c2.52,0,6.41-.31,6.41-.31a1,1,0,0,1,.15,2s-1.3.15-2.75.23l8.76,26,5.26-15.78L24.39,17.58c-1.29-.08-2.52-.23-2.52-.23a1,1,0,0,1,.15-2s4,.31,6.34.31,6.41-.31,6.41-.31a1,1,0,0,1,.15,2s-1.31.15-2.75.23l8.69,25.85,2.48-7.86C44.44,32.13,45.09,29.7,45.09,27.64ZM29.28,31l-7.22,21a24,24,0,0,0,14.78-.39,1.29,1.29,0,0,1-.17-.33ZM50,17.32a17.38,17.38,0,0,1,.16,2.47,22.69,22.69,0,0,1-1.82,8.61L40.94,49.63a24,24,0,0,0,9-32.31Z"/></g></g></g></g></svg>