<svg xmlns="http://www.w3.org/2000/svg" viewBox="0 0 125.95 122.8"><defs><style>.cls-1{fill:#470137;}.cls-2{fill:#ff61f6;}</style></defs><g id="Layer_2" data-name="Layer 2"><g id="Layer_1-2" data-name="Layer 1"><g id="Layer_2-2" data-name="Layer 2"><g id="Surfaces"><g id="UI_UX_Surface" data-name="UI UX Surface"><g id="Outline_no_shadow" data-name="Outline no shadow"><path class="cls-1" d="M22.3,0h81.34A22.28,22.28,0,0,1,126,22.3v78.2a22.28,22.28,0,0,1-22.31,22.3H22.3A22.28,22.28,0,0,1,0,100.5V22.3A22.28,22.28,0,0,1,22.3,0Z"/></g></g></g><g id="Outlined_Mnemonics_Logos" data-name="Outlined Mnemonics Logos"><g id="Xd"><path class="cls-2" d="M66.23,32.27l-15.75,26L67.28,85.8a.94.94,0,0,1,.1.63c0,.21-.26,0-.58.11h-12c-.84,0-1.42-.06-1.79-.58-1.1-2.2-2.25-4.36-3.36-6.56s-2.3-4.36-3.56-6.61S43.56,68.27,42.3,66h-.11c-1.1,2.25-2.31,4.51-3.51,6.76s-2.42,4.52-3.57,6.72-2.42,4.46-3.62,6.61c-.21.53-.63.58-1.21.58H18.73c-.21,0-.36.11-.36-.16a.7.7,0,0,1,.1-.57L34.79,59.14,18.89,32.22c-.16-.21-.21-.42-.1-.52a.59.59,0,0,1,.52-.21H31.22a3.23,3.23,0,0,1,.74.1,1.45,1.45,0,0,1,.52.47c1,2.26,2.16,4.52,3.36,6.77s2.47,4.46,3.78,6.67,2.42,4.41,3.52,6.66h.1c1.1-2.31,2.26-4.56,3.41-6.77S49,41,50.22,38.78s2.36-4.46,3.52-6.61a.94.94,0,0,1,.31-.53,1,1,0,0,1,.68-.1H65.81a.47.47,0,0,1,.57.37c.06.05,0,.26-.15.36Z"/><path class="cls-2" d="M90.47,87.64a26.23,26.23,0,0,1-11.28-2.36,18.19,18.19,0,0,1-7.92-7.14,22.62,22.62,0,0,1-2.89-12A21.51,21.51,0,0,1,71.27,55.1,21.78,21.78,0,0,1,79.61,47a26.8,26.8,0,0,1,13.28-3A8.18,8.18,0,0,1,94,44c.47.05,1,.05,1.63.1V27.5c0-.37.15-.58.52-.58h10.65a.47.47,0,0,1,.53.37V77.35c0,1,.05,2,.1,3.15s.16,2.15.21,3a.83.83,0,0,1-.52.83,39.55,39.55,0,0,1-8.56,2.52A45.48,45.48,0,0,1,90.47,87.64Zm5.15-10.5V54.05c-.48-.1-1-.21-1.42-.26s-1.16-.1-1.73-.1a13,13,0,0,0-5.93,1.36,10.84,10.84,0,0,0-6.2,10.55,14.67,14.67,0,0,0,.9,5.4,10.18,10.18,0,0,0,2.36,3.73,9,9,0,0,0,3.57,2.1,13.73,13.73,0,0,0,4.35.68c.79,0,1.52-.05,2.21-.1A4.64,4.64,0,0,0,95.62,77.14Z"/></g></g></g></g></g></svg>