<svg xmlns="http://www.w3.org/2000/svg" viewBox="0 0 1092.83 244.27"><defs><style>.cls-1,.cls-2{fill:#fff;}.cls-2{font-size:142.26px;font-family:Righteous-Regular, Righteous;letter-spacing:-0.02em;}.cls-3{letter-spacing:0em;}</style></defs><g id="Layer_2" data-name="Layer 2"><g id="Layer_1-2" data-name="Layer 1"><path class="cls-1" d="M217.65,172.21a36.16,36.16,0,0,0-9-14.74,93.78,93.78,0,0,0-.18-71.1A36,36,0,0,0,219,61c0-.27,0-.53,0-.79A36.07,36.07,0,0,0,208.12,35.4c-1-1-2-2-3.05-2.92C178.6,8,141.25-4.95,101.08,1.76A120.87,120.87,0,0,0,2.16,98.83c-14.36,77.7,44.9,145.44,120,145.44a121.72,121.72,0,0,0,83.26-32.77c1.08-1,2.15-2,3.19-3.09a36,36,0,0,0,10.71-24.6c0-.26,0-.52,0-.78A36.11,36.11,0,0,0,217.65,172.21Zm-18.37,25.24a20.75,20.75,0,0,1-1.55,1.56v0A107.51,107.51,0,0,1,122.43,230c-59.43.15-108-48.16-108.12-107.58a107.78,107.78,0,0,1,182.9-77.63,20.6,20.6,0,0,1,1.82,1.8,21.63,21.63,0,0,1,2.24,25.83,94,94,0,0,0-29.9-29.7h0a93,93,0,0,0-49.23-14A93.46,93.46,0,0,0,39.72,78c-.38.72-.76,1.44-1.12,2.17a21.74,21.74,0,0,0,19.83,30.63h.64A21.63,21.63,0,0,0,77.49,99c.44-.85.91-1.68,1.39-2.5A50.31,50.31,0,0,1,156,85h0q1.6,1.46,3.08,3.05h0a35.88,35.88,0,0,0,22.64,9c.4,0,.79,0,1.19,0a36,36,0,0,0,13.29-2.52,79.43,79.43,0,0,1,.14,54.93A36,36,0,0,0,183.23,147q-.69,0-1.38,0a35.91,35.91,0,0,0-22.69,9.18h0c-.92,1-1.87,1.95-2.87,2.87h0a50.3,50.3,0,0,1-78-12.32c-.52-.93-1-1.88-1.48-2.85A21.64,21.64,0,0,0,58.48,133.6h-.14a21.65,21.65,0,0,0-20,30.06v0c.5,1,1,2,1.56,3v0a93.49,93.49,0,0,0,161.56,4.78,21.6,21.6,0,0,1-2.24,26Zm-9.37-116a21.66,21.66,0,0,1-21.27-4.21,21.88,21.88,0,0,1-1.87-1.86v0h0A64.68,64.68,0,0,0,64.8,92.2s0,0,0,0-.12.24-.19.36A7.25,7.25,0,0,1,51.31,87a7.09,7.09,0,0,1,1.23-2.38,79.08,79.08,0,0,1,137.37-3.19Zm.2,81.08a79.1,79.1,0,0,1-137.78-3.24,7,7,0,0,1-.72-1.38,7.23,7.23,0,0,1,12.85-6.48,7.15,7.15,0,0,1,.57,1.1,64.64,64.64,0,0,0,102.09,16.09,23.21,23.21,0,0,1,1.64-1.65,21.63,21.63,0,0,1,21.35-4.44Z"/><text class="cls-2" transform="translate(246.13 171.94)">C<tspan class="cls-3" x="88.22" y="0">ODEAPPAN</tspan></text></g></g></svg>