<svg xmlns="http://www.w3.org/2000/svg" viewBox="0 0 1083.59 244.27"><defs><style>.cls-1{fill:#fff;}</style></defs><g id="Layer_2" data-name="Layer 2"><g id="Layer_1-2" data-name="Layer 1"><path class="cls-1" d="M217.65,172.21a36.16,36.16,0,0,0-9-14.74,93.78,93.78,0,0,0-.18-71.1A36,36,0,0,0,219,61c0-.27,0-.53,0-.79A36.07,36.07,0,0,0,208.12,35.4c-1-1-2-2-3.05-2.92C178.6,8,141.25-4.95,101.08,1.76A120.87,120.87,0,0,0,2.16,98.83c-14.36,77.7,44.9,145.44,120,145.44a121.72,121.72,0,0,0,83.26-32.77c1.08-1,2.15-2,3.19-3.09a36,36,0,0,0,10.71-24.6c0-.26,0-.52,0-.78A36.11,36.11,0,0,0,217.65,172.21Zm-18.37,25.24a20.75,20.75,0,0,1-1.55,1.56v0A107.51,107.51,0,0,1,122.43,230c-59.43.15-108-48.16-108.12-107.58a107.78,107.78,0,0,1,182.9-77.63,20.6,20.6,0,0,1,1.82,1.8,21.63,21.63,0,0,1,2.24,25.83,94,94,0,0,0-29.9-29.7h0a93,93,0,0,0-49.23-14A93.46,93.46,0,0,0,39.72,78c-.38.72-.76,1.44-1.12,2.17a21.74,21.74,0,0,0,19.83,30.63h.64A21.63,21.63,0,0,0,77.49,99c.44-.85.91-1.68,1.39-2.5A50.31,50.31,0,0,1,156,85h0q1.6,1.46,3.08,3.05h0a35.88,35.88,0,0,0,22.64,9c.4,0,.79,0,1.19,0a36,36,0,0,0,13.29-2.52,79.43,79.43,0,0,1,.14,54.93A36,36,0,0,0,183.23,147q-.69,0-1.38,0a35.91,35.91,0,0,0-22.69,9.18h0c-.92,1-1.87,1.95-2.87,2.87h0a50.3,50.3,0,0,1-78-12.32c-.52-.93-1-1.88-1.48-2.85A21.64,21.64,0,0,0,58.48,133.6h-.14a21.65,21.65,0,0,0-20,30.06v0c.5,1,1,2,1.56,3v0a93.49,93.49,0,0,0,161.56,4.78,21.6,21.6,0,0,1-2.24,26Zm-9.37-116a21.66,21.66,0,0,1-21.27-4.21,21.88,21.88,0,0,1-1.87-1.86v0h0A64.68,64.68,0,0,0,64.8,92.2s0,0,0,0-.12.24-.19.36A7.25,7.25,0,0,1,51.31,87a7.09,7.09,0,0,1,1.23-2.38,79.08,79.08,0,0,1,137.37-3.19Zm.2,81.08a79.1,79.1,0,0,1-137.78-3.24,7,7,0,0,1-.72-1.38,7.23,7.23,0,0,1,12.85-6.48,7.15,7.15,0,0,1,.57,1.1,64.64,64.64,0,0,0,102.09,16.09,23.21,23.21,0,0,1,1.64-1.65,21.63,21.63,0,0,1,21.35-4.44Z"/><path class="cls-1" d="M334.9,161.73a51.15,51.15,0,0,1-33.41,12.36,50.25,50.25,0,0,1-13.65-1.84,51.9,51.9,0,0,1-36-36.05,51.7,51.7,0,0,1,0-27.34A52,52,0,0,1,275.55,78a51.12,51.12,0,0,1,12.29-5.21,50.25,50.25,0,0,1,13.65-1.84,51.33,51.33,0,0,1,17.85,3.16,49.34,49.34,0,0,1,15.56,9.2l-10.56,17.37A29.69,29.69,0,0,0,314,93.41a31.68,31.68,0,0,0-12.5-2.54,30.82,30.82,0,0,0-12.36,2.5,32.52,32.52,0,0,0-10.08,6.78,31.46,31.46,0,0,0-6.8,10.07,30.78,30.78,0,0,0-2.5,12.33,30.28,30.28,0,0,0,2.5,12.26,32,32,0,0,0,16.88,16.84,30.65,30.65,0,0,0,12.36,2.5,31.67,31.67,0,0,0,12.5-2.53,29.69,29.69,0,0,0,10.35-7.26Z"/><path class="cls-1" d="M441.18,122.55a50.25,50.25,0,0,1-1.84,13.65,52.84,52.84,0,0,1-5.17,12.29A51.3,51.3,0,0,1,426.11,159,52.49,52.49,0,0,1,415.69,167a51,51,0,0,1-26,7.05,50.25,50.25,0,0,1-13.65-1.84A51.9,51.9,0,0,1,340,136.2a51.21,51.21,0,0,1,5.21-39.63,52.12,52.12,0,0,1,8.09-10.42,50.68,50.68,0,0,1,10.46-8.06,52.24,52.24,0,0,1,12.29-5.17,51.39,51.39,0,0,1,27.33,0,51.38,51.38,0,0,1,35.95,35.94A50.59,50.59,0,0,1,441.18,122.55Zm-19.79,0a31,31,0,0,0-2.5-12.33A31.67,31.67,0,0,0,402,93.37a31.73,31.73,0,0,0-24.69,0,32.52,32.52,0,0,0-10.08,6.78,31.46,31.46,0,0,0-6.8,10.07A30.79,30.79,0,0,0,358,122.55a30.28,30.28,0,0,0,2.51,12.26,32,32,0,0,0,16.88,16.84,31.73,31.73,0,0,0,24.69,0,31.57,31.57,0,0,0,10.07-6.8,32.69,32.69,0,0,0,6.78-10A30.44,30.44,0,0,0,421.39,122.55Z"/><path class="cls-1" d="M534.06,122.13a49.08,49.08,0,0,1-6.81,25.11,51.76,51.76,0,0,1-7.78,10.08,49.6,49.6,0,0,1-22,12.85,49,49,0,0,1-13.23,1.77h-30V72.33h30a49,49,0,0,1,13.23,1.77,49.35,49.35,0,0,1,22,12.85A51.4,51.4,0,0,1,527.25,97a49.08,49.08,0,0,1,6.81,25.11Zm-19.94,0a28.93,28.93,0,0,0-2.33-11.6,30,30,0,0,0-6.39-9.48,30.54,30.54,0,0,0-9.51-6.43,29.08,29.08,0,0,0-11.64-2.36h-9.93V152h9.93a29.23,29.23,0,0,0,11.64-2.33,29.75,29.75,0,0,0,15.9-15.9A29.23,29.23,0,0,0,514.12,122.13Z"/><path class="cls-1" d="M615.54,171.94H547.26V72.33h68.28V92.26H567.19V112.2h32.72v19.93H567.19V152h48.35Z"/><path class="cls-1" d="M708.07,171.94H688.13V152H648.26v19.94H628.39V112.2a38.76,38.76,0,0,1,3.13-15.53A40.4,40.4,0,0,1,640,84a39.7,39.7,0,0,1,12.64-8.55,40.19,40.19,0,0,1,31.05,0,40,40,0,0,1,21.22,21.22,38.93,38.93,0,0,1,3.13,15.53Zm-19.94-39.81V112.2a19.51,19.51,0,0,0-1.56-7.75,19.94,19.94,0,0,0-10.63-10.63,20,20,0,0,0-15.49,0,19.94,19.94,0,0,0-10.63,10.63,19.51,19.51,0,0,0-1.56,7.75v19.93Z"/><path class="cls-1" d="M745.3,171.94H725.36V72.33h39.88a38.82,38.82,0,0,1,10.55,1.42,39.58,39.58,0,0,1,9.49,4,40.08,40.08,0,0,1,18.33,23.86,39.7,39.7,0,0,1-1.7,26,40,40,0,0,1-21.22,21.23A38.71,38.71,0,0,1,765.24,152H745.3Zm0-79.68v39.87h19.94a19.25,19.25,0,0,0,7.71-1.56,20,20,0,0,0,10.59-10.63,20,20,0,0,0,0-15.49,20.05,20.05,0,0,0-4.27-6.35A20.41,20.41,0,0,0,773,93.82a19.25,19.25,0,0,0-7.71-1.56Z"/><path class="cls-1" d="M836.64,171.94H816.71V72.33h39.87a38.84,38.84,0,0,1,10.56,1.42,39.5,39.5,0,0,1,9.48,4A40.17,40.17,0,0,1,895,101.64a39.7,39.7,0,0,1-1.7,26A40.07,40.07,0,0,1,872,148.88,38.73,38.73,0,0,1,856.58,152H836.64Zm0-79.68v39.87h19.94a19.25,19.25,0,0,0,7.71-1.56,20,20,0,0,0,6.32-4.27,20.24,20.24,0,0,0,4.28-6.36,20,20,0,0,0,0-15.49,20.11,20.11,0,0,0-10.6-10.63,19.25,19.25,0,0,0-7.71-1.56Z"/><path class="cls-1" d="M986.62,171.94H966.68V152H926.81v19.94H906.94V112.2a38.76,38.76,0,0,1,3.13-15.53A40.4,40.4,0,0,1,918.58,84a39.82,39.82,0,0,1,12.64-8.55,40.19,40.19,0,0,1,31,0,40,40,0,0,1,21.22,21.22,38.76,38.76,0,0,1,3.13,15.53Zm-19.94-39.81V112.2a19.51,19.51,0,0,0-1.56-7.75,19.94,19.94,0,0,0-10.63-10.63,20,20,0,0,0-15.49,0,19.94,19.94,0,0,0-10.63,10.63,19.51,19.51,0,0,0-1.56,7.75v19.93Z"/><path class="cls-1" d="M1083.59,171.94h-21.32l-38.42-65.58v65.58h-19.93V72.33h21.32L1063.66,138V72.33h19.93Z"/></g></g></svg>